<svg xmlns="http://www.w3.org/2000/svg" width="354.911" height="447.084" viewBox="0 0 354.911 447.084"><g transform="translate(-762 -165)"><g transform="translate(543.36 -146.241)"><rect width="75.14" height="2.709" transform="translate(385.452 694.864) rotate(-43.2)" fill="#3f5c7f"/><path d="M683.2,970.922a5.716,5.716,0,1,1-2.107-7.8A5.716,5.716,0,0,1,683.2,970.922Z" transform="translate(-238.534 -328.647)" fill="#a796f2"/><path d="M674.134,885.6l42.976-74.759,13.58,7.807-46.646,72.649Z" transform="translate(-239.378 -249.018)" fill="#c96858"/><path d="M681.922,982.839l-14.9-8.566L670.4,968.4l9.916,5.7,3.906,6.375a1.7,1.7,0,0,1,.025,1.735h0A1.7,1.7,0,0,1,681.922,982.839Z" transform="translate(-235.639 -331.823)" fill="#3f5c7f"/><path d="M558.643,1029.012a67.045,67.045,0,1,1,67.045-67.045A67.121,67.121,0,0,1,558.643,1029.012Zm0-128.672a61.627,61.627,0,1,0,61.627,61.627A61.7,61.7,0,0,0,558.643,900.34Z" transform="translate(-143.449 -293.207)" fill="#7760db"/><path d="M476.338,974.164l-1.291-.409a78.293,78.293,0,0,1,4.57-11.264l1.211.6A77.02,77.02,0,0,0,476.338,974.164Z" transform="translate(-134.751 -328.717)" fill="#a9cdce"/><path d="M474.186,991.889l-1.308-.349q.257-.965.538-1.92l1.3.382Q474.439,990.941,474.186,991.889Z" transform="translate(-133.611 -342.975)" fill="#a9cdce"/><path d="M480.758,989.242l-1.349-.125a72.235,72.235,0,0,1,9.41-29.623l1.173.676A70.894,70.894,0,0,0,480.758,989.242Z" transform="translate(-137.043 -327.143)" fill="#a9cdce"/><path d="M558.643,1029.012a67.045,67.045,0,1,1,67.045-67.045A67.121,67.121,0,0,1,558.643,1029.012Zm0-128.672a61.627,61.627,0,1,0,61.627,61.627A61.7,61.7,0,0,0,558.643,900.34Z" transform="translate(-143.449 -293.207)" fill="#657d99"/><rect width="4.063" height="93.95" transform="translate(413.163 579.08)" fill="#3f5c7f"/><path d="M597.087,845.088l31.9-4.342a5.2,5.2,0,0,0,4.5-5.151H591.188v4.342A5.2,5.2,0,0,0,597.087,845.088Z" transform="translate(-195.787 -262.029)" fill="#3f5c7f"/><g transform="translate(501.068 512.542)"><path d="M841.9,713.477a5.418,5.418,0,1,1-4.232-6.388A5.418,5.418,0,0,1,841.9,713.477Z" transform="translate(-822.977 -706.979)" fill="#e9c3bc"/><path d="M821.941,713.532a4.063,4.063,0,1,0-4.791,3.174A4.063,4.063,0,0,0,821.941,713.532Z" transform="translate(-813.895 -707.862)" fill="#ff95a9"/><path d="M830.664,707.02l-9.44.792-.467,8.032,9.284,1.885Z" transform="translate(-817.501 -707)" fill="#e9c3bc"/></g><path d="M725.864,683.959,724.391,676l-2.736.238-4.042.354-40.334,3.509L658.8,646.5l-22.269,15.2L665,695.765l.007,0a9.235,9.235,0,0,0,9.64,2.953c.022-.006.042-.015.064-.022Z" transform="translate(-219.614 -162.654)" fill="#6fabae"/><path d="M814.2,708.683l1.474,7.955-7.419,2.137-.833-9.5,4.042-.354Z" transform="translate(-309.427 -195.333)" fill="#fff"/><path d="M818.689,708.688l1.474,7.955-3.449.993-.761-8.71Z" transform="translate(-313.908 -195.335)" fill="#e9c3bc"/><path d="M652.113,655.623a13.544,13.544,0,1,1,1.7-19.079A13.544,13.544,0,0,1,652.113,655.623Z" transform="translate(-216.122 -154.868)" fill="#6fabae"/><g transform="translate(298.863 482.131)"><path d="M387.72,648.331a5.418,5.418,0,1,0,5.388-5.447A5.418,5.418,0,0,0,387.72,648.331Z" transform="translate(-387.72 -642.884)" fill="#e9c3bc"/><path d="M410.558,652.569a4.063,4.063,0,1,1,4.086,4.041A4.063,4.063,0,0,1,410.558,652.569Z" transform="translate(-399.722 -645.827)" fill="#ff95a9"/><path d="M400.664,643.322l9.108,2.6-1.1,7.97-9.474.052Z" transform="translate(-393.753 -643.114)" fill="#e9c3bc"/></g><circle cx="9.238" cy="9.238" r="9.238" transform="translate(345.412 514.257) rotate(-14.093)" fill="#6fabae"/><path d="M543.9,664.73l-36.515,25.25L495.5,675.942l30.977-31.8Z" transform="translate(-145.501 -161.416)" fill="#6fabae"/><g transform="translate(312.281 485.379)"><path d="M454.118,692.14,416,656.975l3.594-7.245,2.347,1.427,3.466,2.109,39.73,24.148Z" transform="translate(-416 -649.73)" fill="#6fabae"/><path d="M419.59,649.732,416,656.976l1.393,1.653,4.544-7.47Z" transform="translate(-416 -649.731)" fill="#fff"/></g><circle cx="13.544" cy="13.544" r="13.544" transform="translate(372.848 499.135) rotate(-66.312)" fill="#6fabae"/><path d="M658.1,796.629l57.388,2.817V815.11l-57.388.007Z" transform="translate(-230.95 -241.551)" fill="#c96858"/><circle cx="9.244" cy="9.244" r="9.244" transform="translate(385.167 559.139) rotate(-21.603)" fill="#a796f2"/><circle cx="9.244" cy="9.244" r="9.244" transform="translate(417.903 555.079)" fill="#a796f2"/><path d="M616.417,641.148l.064,71.106-49.352-1.085-6.649-67.248a9.481,9.481,0,0,1,8.966-10.4l37.021-1.835A9.481,9.481,0,0,1,616.417,641.148Z" transform="translate(-179.624 -154.86)" fill="#6fabae"/><path d="M623.864,796.648l-.454,9.244-.022.453a9.244,9.244,0,0,1-9.233,8.791H584.19a9.244,9.244,0,0,1-9.233-8.791l-.022-.453-.454-9.244Z" transform="translate(-187.007 -241.561)" fill="#c96858"/><path d="M594.03,806.985l26.939,50.672-13.831,7.353-29.427-49.349Z" transform="translate(-188.704 -246.994)" fill="#c96858"/><path d="M569.175,1079.291a5.715,5.715,0,1,1-2.248-7.764A5.716,5.716,0,0,1,569.175,1079.291Z" transform="translate(-178.583 -385.647)" fill="#a796f2"/><path d="M602.755,633.267l14.592,48.144,6.907-34.93-.706-14.245Z" transform="translate(-201.865 -155.157)" fill="#fff"/><path d="M623.547,632.237l.706,14.245-2.879,14.551-4.028,20.379-6.023-19.88-8.568-28.264Z" transform="translate(-201.865 -155.158)" fill="#fff"/><path d="M777.151,814.3a7.832,7.832,0,1,1-2.887-10.693A7.832,7.832,0,0,1,777.151,814.3Z" transform="translate(-285.832 -244.67)" fill="#c96858"/><path d="M652.487,916.637A7.832,7.832,0,1,1,649.406,906,7.832,7.832,0,0,1,652.487,916.637Z" transform="translate(-220.279 -298.517)" fill="#c96858"/><path d="M559.965,991.14l37.9-77.571,13.72,7.558-41.608,75.529Z" transform="translate(-179.378 -303.007)" fill="#c96858"/><path d="M630.864,665.051l-4.028,20.379-6.023-19.88,3.091-25.6,1.353-.067Z" transform="translate(-211.356 -159.175)" fill="#3f5c7f"/><path d="M568.117,1091.277l-15.055-8.293,3.268-5.932,10.018,5.519,4.022,6.3a1.7,1.7,0,0,1,.056,1.735h0A1.7,1.7,0,0,1,568.117,1091.277Z" transform="translate(-175.75 -388.923)" fill="#3f5c7f"/><rect width="16.931" height="18.346" transform="matrix(0.999, -0.05, 0.05, 0.999, 399.981, 459.787)" fill="#e9c3bc"/><g transform="translate(409.776 663.342)"><path d="M632.467,1031.727a4.063,4.063,0,1,1-4.063-4.063A4.064,4.064,0,0,1,632.467,1031.727Z" transform="translate(-622.985 -1026.31)" fill="#fff"/><path d="M626.9,1035.645a5.418,5.418,0,1,1,5.417-5.418A5.424,5.424,0,0,1,626.9,1035.645Zm0-8.127a2.709,2.709,0,1,0,2.709,2.709A2.712,2.712,0,0,0,626.9,1027.519Z" transform="translate(-621.485 -1024.81)" fill="#657d99"/></g><path d="M371.941,399.412l-1.133-.741A141.477,141.477,0,0,1,463.484,337l.242,1.333A140.118,140.118,0,0,0,371.941,399.412Z" transform="translate(-79.969 0)" fill="#a9cdce"/><path d="M828.137,456.4a140.106,140.106,0,0,0-68.631-87.331l.645-1.191a141.466,141.466,0,0,1,69.3,88.178Z" transform="translate(-284.244 -16.225)" fill="#a9cdce"/><path d="M485.62,363.473l-.64-1.194A134.425,134.425,0,0,1,523.5,348.633l.252,1.33A133.087,133.087,0,0,0,485.62,363.473Z" transform="translate(-139.971 -6.114)" fill="#a9cdce"/><path d="M469.105,384.284l-.719-1.148c1.948-1.221,3.949-2.406,5.949-3.521L475,380.8C473.015,381.9,471.034,383.075,469.105,384.284Z" transform="translate(-131.25 -22.396)" fill="#a9cdce"/><path d="M334.673,620.1c-.4-4.237-.6-8.554-.6-12.83a136.425,136.425,0,0,1,1.438-19.761l1.34.2a135.122,135.122,0,0,0-1.423,19.565c0,4.234.2,8.508.6,12.7Z" transform="translate(-60.662 -131.653)" fill="#a9cdce"/><path d="M335.9,661.415q-.1-.847-.193-1.7l1.347-.146q.091.843.192,1.681Z" transform="translate(-61.524 -169.523)" fill="#a9cdce"/><path d="M885.746,703.422l-1.269-.475a133.5,133.5,0,0,0,6.263-22.64l1.332.244A134.835,134.835,0,0,1,885.746,703.422Z" transform="translate(-349.92 -180.42)" fill="#a9cdce"/><path d="M873.242,509.669a133.588,133.588,0,0,0-15.354-33.3l1.14-.73a134.915,134.915,0,0,1,15.51,33.638Z" transform="translate(-335.947 -72.859)" fill="#a9cdce"/><path d="M851.636,467.062c-1.081-1.631-2.22-3.269-3.383-4.866l1.1-.8c1.175,1.614,2.325,3.268,3.417,4.915Z" transform="translate(-330.883 -65.376)" fill="#a9cdce"/><path d="M638.463,540.5l-2.312.845-5.706-15.608,2.312-.845a8.309,8.309,0,0,1,10.657,4.951h0A8.309,8.309,0,0,1,638.463,540.5Z" transform="translate(-216.418 -98.475)" fill="#3f5c7f"/><path d="M0,0H12.31a0,0,0,0,1,0,0V12.9a0,0,0,0,1,0,0H9.088A9.088,9.088,0,0,1,0,3.809V0A0,0,0,0,1,0,0Z" transform="translate(392.438 455.829) rotate(-20.083)" fill="#3f5c7f"/><path d="M0,0H2.455A10.906,10.906,0,0,1,13.361,10.906v.618A9.861,9.861,0,0,1,3.5,21.385H0a0,0,0,0,1,0,0V0A0,0,0,0,1,0,0Z" transform="matrix(0.939, -0.343, 0.343, 0.939, 406.716, 424.4)" fill="#3f5c7f"/><path d="M622.454,567.187l-20.524,7.5-8.45-23.111a13.553,13.553,0,0,1,8.075-17.383h0a13.553,13.553,0,0,1,17.143,7.465l7.314,17.354A6.155,6.155,0,0,1,622.454,567.187Z" transform="translate(-196.556 -103.199)" fill="#e9c3bc"/><path d="M652.091,561.631l-4.547-10.789Z" transform="translate(-225.404 -112.382)" fill="none"/><path d="M14.154,0h0a0,0,0,0,1,0,0V23.17a0,0,0,0,1,0,0H0a0,0,0,0,1,0,0V14.154A14.154,14.154,0,0,1,14.154,0Z" transform="matrix(0.939, -0.343, 0.343, 0.939, 385.116, 435.802)" fill="#3f5c7f"/><path d="M595.852,582.842l3.468-1.268-1.268-3.468a3.692,3.692,0,0,0-4.737-2.2h0a3.693,3.693,0,0,0-2.2,4.736h0A3.693,3.693,0,0,0,595.852,582.842Z" transform="translate(-195.63 -125.434)" fill="#e9c3bc"/><path d="M619.032,531.815l-13.168,4.814a10.375,10.375,0,0,1-13.291-6.175,4.924,4.924,0,0,1,9.249-3.382.515.515,0,0,0,.661.307l13.168-4.814Z" transform="translate(-196.357 -97.521)" fill="#3f5c7f"/><path d="M620.167,525.521l-6.551,2.4a4.924,4.924,0,1,1-3.381-9.249l6.551-2.4a4.924,4.924,0,0,1,3.381,9.249Z" transform="translate(-204.097 -94.056)" fill="#3f5c7f"/><path d="M635.343,584.739a4.929,4.929,0,0,1-2.85,6.543l-9.191,3.36a9.847,9.847,0,0,1-12.629-5.867l-3.958-10.826,3.466-1.267h0a4.1,4.1,0,0,0,5.264,2.445l15.189-5.553Z" transform="translate(-203.947 -124.328)" fill="#3f5c7f"/><path d="M638.5,584.087a3.725,3.725,0,0,0,7.012-2.518Z" transform="translate(-220.651 -128.53)" fill="#fff"/><g transform="translate(299.904 746.65)"><path d="M503.605,1201.821h0Z" transform="translate(-389.915 -1201.144)" fill="#a9cdce"/><rect width="113.69" height="1.354" transform="translate(0 0)" fill="#a9cdce"/></g><g transform="translate(287.039 756.97)"><path d="M409.715,1223.573h0Z" transform="translate(-362.799 -1222.896)" fill="#a9cdce"/><rect width="46.916" height="1.354" transform="translate(0 0)" fill="#a9cdce"/></g><g transform="translate(364.162 756.97)"><path d="M623.38,1223.573h0Z" transform="translate(-525.348 -1222.896)" fill="#a9cdce"/><rect width="98.032" height="1.354" transform="translate(0 0)" fill="#a9cdce"/></g><g transform="translate(250.551 746.808)"><path d="M315.583,1202.154h0Z" transform="translate(-285.897 -1201.477)" fill="#a9cdce"/><rect width="29.686" height="1.354" fill="#a9cdce"/></g><g transform="translate(436.305 746.65)"><path d="M764.929,1201.821h0Z" transform="translate(-677.399 -1201.144)" fill="#a9cdce"/><rect width="87.53" height="1.354" transform="translate(0 0)" fill="#a9cdce"/></g><rect width="354.911" height="1.354" transform="translate(218.64 735.81)" fill="#a9cdce"/></g><g transform="translate(785 267)"><circle cx="26" cy="26" r="26" fill="#9f89b8"/></g><g transform="translate(937 165)"><circle cx="26" cy="26" r="26" fill="#efd36a"/></g><g transform="translate(1050 302)"><circle cx="26" cy="26" r="26" fill="#c96858"/></g><text transform="translate(801 305)" fill="#fff" font-size="35" font-family="Montserrat-Bold, Montserrat" font-weight="700"><tspan x="0" y="0">?</tspan></text><text transform="translate(953 203)" fill="#fff" font-size="35" font-family="Montserrat-Bold, Montserrat" font-weight="700"><tspan x="0" y="0">?</tspan></text><text transform="translate(1067 339)" fill="#fff" font-size="35" font-family="Montserrat-Bold, Montserrat" font-weight="700"><tspan x="0" y="0">?</tspan></text></g></svg>