<svg xmlns="http://www.w3.org/2000/svg" width="431" height="353.086" viewBox="0 0 431 353.086"><g transform="translate(-136 -1158)"><g transform="translate(136 1158)"><rect width="431" height="273" fill="#e2eeef"/><rect width="431" height="35" fill="#6fabae"/><circle cx="6" cy="6" r="6" transform="translate(13 11)" fill="#a9cdce"/><circle cx="6" cy="6" r="6" transform="translate(29 11)" fill="#a9cdce"/><ellipse cx="5" cy="6" rx="5" ry="6" transform="translate(46 11)" fill="#a9cdce"/><line x2="16" y2="15" transform="translate(397 9)" fill="none" stroke="#a9cdce" stroke-miterlimit="10" stroke-width="3"/><line x1="16" y2="15" transform="translate(397 9)" fill="none" stroke="#a9cdce" stroke-miterlimit="10" stroke-width="3"/></g><g transform="translate(174.426 1250.535)"><g transform="translate(0 75.439)"><rect width="147.036" height="7.222" fill="#c5dddf"/><g transform="translate(0 14.447)"><rect width="147.036" height="7.221" fill="#c5dddf"/></g><g transform="translate(0 28.892)"><rect width="147.036" height="7.222" fill="#c5dddf"/></g><g transform="translate(0 43.338)"><rect width="147.036" height="7.222" fill="#c5dddf"/></g></g><rect width="147.036" height="25.395" transform="translate(0 0)" fill="#c5dddf"/></g><g transform="translate(163.447 1248.797)"><g transform="translate(287.797 142.867)"><rect width="46.52" height="0.772" transform="translate(3.512 11.78)" fill="#2a4b6d"/><rect width="0.772" height="116.505" transform="matrix(0.968, -0.252, 0.252, 0.968, 0, 0.194)" fill="#2a4b6d"/><rect width="0.772" height="116.505" transform="matrix(0.968, -0.252, 0.252, 0.968, 46.52, 0.194)" fill="#2a4b6d"/><rect width="46.485" height="0.772" transform="translate(8.555 31.048)" fill="#2a4b6d"/><rect width="46.522" height="0.772" transform="translate(13.529 50.315)" fill="#2a4b6d"/><rect width="46.523" height="0.772" transform="translate(18.537 69.584)" fill="#2a4b6d"/><rect width="46.523" height="0.772" transform="translate(23.545 88.852)" fill="#2a4b6d"/></g><rect width="390.776" height="0.772" transform="translate(0 255.722)" fill="#6fabae"/><g transform="translate(179.024 261.516)"><path d="M743.623,988.145h0Z" transform="translate(-743.623 -987.759)" fill="#6fabae"/><rect width="159.236" height="0.772" transform="translate(0)" fill="#6fabae"/></g><g transform="translate(111.433 261.516)"><path d="M568.581,988.145h0Z" transform="translate(-568.581 -987.759)" fill="#6fabae"/><rect width="26.806" height="0.772" fill="#6fabae"/></g><g transform="translate(18.921 261.516)"><path d="M329,988.145h0Z" transform="translate(-329 -987.759)" fill="#6fabae"/><rect width="49.8" height="0.772" transform="translate(0)" fill="#6fabae"/></g><g transform="translate(81.228 8.277)"><rect width="101.965" height="2.317" transform="matrix(0.601, -0.799, 0.799, 0.601, 131.044, 81.496)" fill="#2a4b6d"/><rect width="78.837" height="2.317" transform="translate(53.136 81.036)" fill="#2a4b6d"/><rect width="62.631" height="2.317" transform="matrix(0.838, -0.545, 0.545, 0.838, 0, 115.371)" fill="#2a4b6d"/></g><g transform="translate(72.887 0)"><circle cx="6.866" cy="6.866" r="6.866" transform="translate(0 120.899) rotate(-22.5)" fill="#efd36a"/><circle cx="6.866" cy="6.866" r="6.866" transform="translate(54.611 83.606)" fill="#efd36a"/><circle cx="6.866" cy="6.866" r="6.866" transform="translate(133.449 83.606)" fill="#efd36a"/><circle cx="6.866" cy="6.866" r="6.866" transform="translate(192.617 5.255) rotate(-22.5)" fill="#efd36a"/></g><g transform="translate(70.118 123.322)"><path d="M470.361,629.764a3.089,3.089,0,1,1-4.277.891A3.089,3.089,0,0,1,470.361,629.764Z" transform="translate(-464.037 -629.259)" fill="#e9c3bc"/><path d="M465.173,644.436a2.317,2.317,0,1,0,.668,3.208A2.317,2.317,0,0,0,465.173,644.436Z" transform="translate(-461.586 -638.343)" fill="#e9c3bc"/><path d="M463.42,634.93l-1.575,5.167L466,642.041l2.96-4.519Z" transform="translate(-461.745 -632.74)" fill="#e9c3bc"/></g><path d="M412.575,698.932a5.267,5.267,0,1,0,1.519,7.292A5.267,5.267,0,0,0,412.575,698.932Z" transform="translate(-356.377 -548.178)" fill="#e9c3bc"/><path d="M351.171,691.068l24.988,4.045,2.673-10.139L355.09,676.2Z" transform="translate(-323.689 -534.754)" fill="#e9c3bc"/><path d="M416.475,674.177l16.655-25.424-3.6-2.891-1.094,1.121L408.3,667.6Z" transform="translate(-358.759 -516.13)" fill="#e9c3bc"/><path d="M461.554,645.863l3.6,2.891-1.121,1.712-3.568-3.482Z" transform="translate(-390.777 -516.13)" fill="#e9c3bc"/><circle cx="7.723" cy="7.723" r="7.723" transform="translate(18.523 144.72) rotate(-23.67)" fill="#a796f2"/><g transform="translate(270.588 10.257)"><path d="M982.959,336.582a3.089,3.089,0,1,0,3.84,2.083A3.09,3.09,0,0,0,982.959,336.582Z" transform="translate(-980.748 -336.454)" fill="#9d8682"/><path d="M986.468,352.531a2.317,2.317,0,1,1-1.562,2.88A2.317,2.317,0,0,1,986.468,352.531Z" transform="translate(-983.241 -346.264)" fill="#9d8682"/><path d="M987.131,344.425l.024,5.4-4.539.668-1.536-5.179Z" transform="translate(-980.952 -341.347)" fill="#9d8682"/></g><g transform="translate(272.253 17.671)"><path d="M993.71,386.527l-8.644-29.138,4.274-1.735.726,1.388,1.071,2.051,12.289,23.489Z" transform="translate(-985.064 -355.653)" fill="#9d8682"/><path d="M989.334,355.653l-4.274,1.735.582,1.962,4.418-2.31Z" transform="translate(-985.06 -355.653)" fill="#9d8682"/></g><g transform="translate(278.173 9.704)"><path d="M1000.788,336.6a3.089,3.089,0,1,1,1.175,4.207A3.089,3.089,0,0,1,1000.788,336.6Z" transform="translate(-1000.39 -335.022)" fill="#907a76"/><path d="M1015.859,343.326a2.317,2.317,0,1,0,3.156-.882A2.317,2.317,0,0,0,1015.859,343.326Z" transform="translate(-1009.703 -339.395)" fill="#907a76"/><path d="M1006.579,341.754l5.261,1.226,1.662-4.276-4.707-2.651Z" transform="translate(-1004.189 -335.655)" fill="#907a76"/></g><circle cx="5.267" cy="5.267" r="5.267" transform="translate(305.822 37.215) rotate(-86.714)" fill="#ff95a9"/><path d="M1105.591,393.969l-22.055-12.423-6.009,8.593,19.254,16.429Z" transform="translate(-769.568 -353.877)" fill="#907a76"/><g transform="translate(284.843 12.754)"><path d="M1017.665,346.707l2.643-3.78,26.482,14.916-6.01,8.594-20.163-17.211-1.76-1.5Z" transform="translate(-1017.664 -342.924)" fill="#907a76"/><path d="M1017.664,346.7l2.643-3.781,1.783,1-3.235,3.793Z" transform="translate(-1017.664 -342.92)" fill="#907a76"/></g><path d="M1110.786,397.321l-18.312-10.315-6.483,9.276,15.984,13.639Z" transform="translate(-774.764 -357.229)" fill="#c96858"/><circle cx="2.51" cy="2.51" r="2.51" transform="translate(194.245 252.843) rotate(-54.671)" fill="#ff95a9"/><path d="M751.973,762.529l13.021,77.024,4.974-.65-7.281-77.773Z" transform="translate(-569.724 -586.888)" fill="#e9c3bc"/><g transform="translate(174.805 115.777)"><rect width="8.495" height="10.461" fill="#e9c3bc"/><circle cx="4.248" cy="4.248" r="4.248" transform="translate(0 6.213)" fill="#e9c3bc"/></g><path d="M715.907,574.358h14.512V593.09h-9.013a6.258,6.258,0,0,1-6.247-6.645Z" transform="translate(-547.119 -472.236)" fill="#e9c3bc"/><path d="M1086.2,362.556l12.791-.71-.778-14.009a7.728,7.728,0,0,0-8.144-7.288h0a8.053,8.053,0,0,0-7.649,7.79l.076,10.737A3.509,3.509,0,0,0,1086.2,362.556Z" transform="translate(-772.574 -328.703)" fill="#ff95a9"/><path d="M1082.5,359.078a3.51,3.51,0,0,0,3.7,3.478l12.789-.71-.778-14.009a7.729,7.729,0,0,0-8.144-7.288,8.587,8.587,0,0,0-5.551,2.445,7.694,7.694,0,0,0-2.1,5.343Z" transform="translate(-772.575 -328.704)" fill="#9d8682"/><path d="M1082.473,367.414l-.047-6.676Z" transform="translate(-772.575 -341.104)" fill="#e9c3bc"/><path d="M0,0H8.07a0,0,0,0,1,0,0V13.211a0,0,0,0,1,0,0h0A8.07,8.07,0,0,1,0,5.141V0A0,0,0,0,1,0,0Z" transform="translate(329.729 23.077) rotate(176.822)" fill="#2a4b6d"/><path d="M1080.707,337.191l3.73,2.2a2.808,2.808,0,0,0,2.848-4.839l-3.73-2.2a2.808,2.808,0,0,0-2.849,4.839Z" transform="translate(-770.671 -323.44)" fill="#2a4b6d"/><path d="M1070.583,345.592a4.232,4.232,0,0,0,4.461,3.992,4.244,4.244,0,1,0-.469-8.453A4.233,4.233,0,0,0,1070.583,345.592Z" transform="translate(-765.302 -329.064)" fill="#2a4b6d"/><path d="M1089.152,333.583a4.233,4.233,0,0,0,4.461,3.992,4.244,4.244,0,1,0-.469-8.453A4.232,4.232,0,0,0,1089.152,333.583Z" transform="translate(-776.701 -321.692)" fill="#2a4b6d"/><rect width="11.698" height="4.387" transform="translate(323.326 18.941) rotate(176.822)" fill="#2a4b6d"/><rect width="9.037" height="5.595" transform="matrix(-0.998, 0.055, -0.055, -0.998, 323.297, 24.488)" fill="#2a4b6d"/><path d="M7.354,0h.6a5.479,5.479,0,0,1,5.479,5.479V7.354a0,0,0,0,1,0,0H0a0,0,0,0,1,0,0v0A7.354,7.354,0,0,1,7.354,0Z" transform="matrix(-0.998, 0.055, -0.055, -0.998, 330.078, 29.368)" fill="#2a4b6d"/><path d="M1105.5,401.394h0a4.827,4.827,0,0,0,4.552-5.087l-.544-9.808-9.639.535.545,9.808A4.827,4.827,0,0,0,1105.5,401.394Z" transform="translate(-783.28 -356.917)" fill="#9d8682"/><path d="M1090.472,373.36l-2.1.117-.234-4.2,2.1-.117a2.106,2.106,0,0,1,2.219,1.986h0A2.106,2.106,0,0,1,1090.472,373.36Z" transform="translate(-776.081 -346.268)" fill="#9d8682"/><path d="M0,0H.2A5.036,5.036,0,0,1,5.235,5.036v0a0,0,0,0,1,0,0H0a0,0,0,0,1,0,0V0A0,0,0,0,1,0,0Z" transform="translate(316.26 22.77) rotate(176.822)" fill="#2a4b6d"/><path d="M1110.9,404.651a4.827,4.827,0,1,1-5.087-4.552A4.827,4.827,0,0,1,1110.9,404.651Z" transform="translate(-784.134 -365.261)" fill="#9d8682"/><path d="M1110.278,503.687a14,14,0,0,1-.73,5.319l-26.071,1.447a14.079,14.079,0,1,1,26.8-6.767Z" transform="translate(-772.401 -420.69)" fill="#7760db"/><circle cx="3.861" cy="3.861" r="3.861" transform="translate(319.527 87.153) rotate(-83.192)" fill="#ffe159"/><circle cx="5.267" cy="5.267" r="5.267" transform="matrix(0.91, -0.414, 0.414, 0.91, 278.971, 44.435)" fill="#9d8682"/><path d="M1043.8,429.542l-25.088-3.369.379-10.479,25.265-1.517Z" transform="translate(-733.462 -373.908)" fill="#9d8682"/><path d="M1090.87,538.261a5.271,5.271,0,1,1,2.78-6.916A5.271,5.271,0,0,1,1090.87,538.261Z" transform="translate(-773.253 -443.865)" fill="#7760db"/><circle cx="5.271" cy="5.271" r="5.271" transform="translate(325.482 90.632) rotate(-61.096)" fill="#7760db"/><path d="M1110.309,524.828l.034,5.277v.259a5.271,5.271,0,0,1-4.979,5.3l-17.059.947a5.27,5.27,0,0,1-5.534-4.713l-.027-.257-.551-5.248Z" transform="translate(-772.434 -441.832)" fill="#6fabae"/><circle cx="3.259" cy="3.259" r="3.259" transform="matrix(0.69, -0.724, 0.724, 0.69, 298.456, 149.293)" fill="#7760db"/><path d="M1146.082,745.922a3.259,3.259,0,1,1-3.435-3.073A3.259,3.259,0,0,1,1146.082,745.922Z" transform="translate(-807.653 -575.662)" fill="#7760db"/><path d="M1138.559,571.255h0l-.21-32.76-10.525.584,1.818,32.671h0l2.726,49.092,6.508-.361Z" transform="translate(-800.446 -450.221)" fill="#6fabae"/><path d="M1044.789,538.938l-4.134-9.693-29.468,14.315.007.017a4.463,4.463,0,0,0-2.482,5.578l18.451,45.638,6.155-2.144-14.8-42.5Z" transform="translate(-727.172 -444.544)" fill="#6fabae"/><path d="M1129.527,755.144h9.8v-3.861h-6.522l-3.743,2.041a.969.969,0,0,0-.505.851h0A.969.969,0,0,0,1129.527,755.144Z" transform="translate(-800.894 -580.843)" fill="#2a4b6d"/><path d="M1050.093,700.322l9.255-3.224-1.27-3.647-6.159,2.145-2.863,3.159a.97.97,0,0,0-.2.97h0A.97.97,0,0,0,1050.093,700.322Z" transform="translate(-751.937 -545.343)" fill="#2a4b6d"/><path d="M381.881,626l-12.714-1.57,1.72-13.925a7.727,7.727,0,0,1,8.616-6.722h0a8.053,8.053,0,0,1,7.107,8.288l-.8,10.708A3.51,3.51,0,0,1,381.881,626Z" transform="translate(-334.736 -490.265)" fill="#e9c3bc"/><path d="M385.813,622.784a3.51,3.51,0,0,1-3.93,3.22l-12.713-1.57,1.72-13.925a7.728,7.728,0,0,1,8.617-6.722,8.586,8.586,0,0,1,5.374,2.813,7.7,7.7,0,0,1,1.732,5.472Z" transform="translate(-334.738 -490.265)" fill="#e9c3bc"/><path d="M408.212,601.521l-.512,4.141a3.709,3.709,0,0,1-.229.912l-7.792-.962,1.142-9.247,3.727.46A4.21,4.21,0,0,1,408.212,601.521Z" transform="translate(-353.466 -485.745)" fill="#2a4b6d"/><path d="M413.054,632l.5-6.657Z" transform="translate(-361.676 -503.531)" fill="none"/><path d="M371.323,663.315h0a4.827,4.827,0,0,1-4.2-5.382l1.2-9.749,9.581,1.183-1.2,9.749A4.827,4.827,0,0,1,371.323,663.315Z" transform="translate(-333.459 -517.555)" fill="#e9c3bc"/><path d="M398.369,637.144l2.09.258.516-4.18-2.09-.258a2.105,2.105,0,0,0-2.348,1.831h0A2.106,2.106,0,0,0,398.369,637.144Z" transform="translate(-351.528 -508.202)" fill="#e9c3bc"/><g transform="translate(31.037 109.757)"><path d="M8.07,0h0a0,0,0,0,1,0,0V13.211a0,0,0,0,1,0,0H0a0,0,0,0,1,0,0V8.07A8.07,8.07,0,0,1,8.07,0Z" transform="translate(2.392 1.034) rotate(7.04)" fill="#2a4b6d"/><path d="M396.44,604.206l-8.282-1.023a5.915,5.915,0,0,1-5.14-6.588,2.807,2.807,0,1,1,5.572.688.294.294,0,0,0,.256.327l8.282,1.023Z" transform="translate(-374.248 -594.131)" fill="#2a4b6d"/><path d="M400.329,602.323l-4.3-.531a2.807,2.807,0,1,1,.688-5.572l4.3.531a2.807,2.807,0,1,1-.688,5.572Z" transform="translate(-380.753 -595.4)" fill="#2a4b6d"/><path d="M412.792,610.554a4.233,4.233,0,0,1-4.719,3.682,4.244,4.244,0,1,1,1.038-8.4A4.233,4.233,0,0,1,412.792,610.554Z" transform="translate(-387.187 -601.295)" fill="#2a4b6d"/><rect width="11.698" height="4.387" transform="translate(7.977 6.097) rotate(7.04)" fill="#2a4b6d"/><rect width="9.037" height="5.595" transform="translate(7.78 10.434) rotate(7.041)" fill="#2a4b6d"/><path d="M0,0H13.431a0,0,0,0,1,0,0V1.875A5.479,5.479,0,0,1,7.952,7.354h-.6A7.354,7.354,0,0,1,0,0V0A0,0,0,0,1,0,0Z" transform="matrix(0.992, 0.123, -0.123, 0.992, 0.901, 13.101)" fill="#2a4b6d"/><path d="M0,0H5.235a0,0,0,0,1,0,0V0A5.036,5.036,0,0,1,.2,5.036H0a0,0,0,0,1,0,0V0A0,0,0,0,1,0,0Z" transform="translate(14.848 9.749) rotate(7.041)" fill="#2a4b6d"/></g><circle cx="4.827" cy="4.827" r="4.827" transform="translate(31.658 141.592) rotate(-50.229)" fill="#e9c3bc"/><circle cx="3.861" cy="3.861" r="3.861" transform="translate(23.587 181.264)" fill="#a796f2"/><circle cx="5.267" cy="5.267" r="5.267" transform="matrix(0.833, -0.553, 0.553, 0.833, 18.775, 172.418)" fill="#ff95a9"/><path d="M349.343,696.192,344.315,721l-10.43-1.075.165-25.31Z" transform="translate(-313.078 -546.057)" fill="#ff95a9"/><circle cx="5.523" cy="5.523" r="5.523" transform="matrix(0.383, -0.924, 0.924, 0.383, 21.367, 151.682)" fill="#a796f2"/><circle cx="5.523" cy="5.523" r="5.523" transform="translate(41.675 148.693) rotate(-45)" fill="#1dc29e"/><g transform="translate(82.329 123.858)"><path d="M497.839,630.81a3.089,3.089,0,1,1-3.912,1.945A3.09,3.09,0,0,1,497.839,630.81Z" transform="translate(-493.55 -630.648)" fill="#e9c3bc"/><path d="M496.263,646.668a2.317,2.317,0,1,0,1.459,2.934A2.317,2.317,0,0,0,496.263,646.668Z" transform="translate(-493.208 -640.408)" fill="#e9c3bc"/><path d="M493.429,638.334l-.216,5.4,4.512.829,1.72-5.121Z" transform="translate(-493.211 -635.366)" fill="#e9c3bc"/></g><circle cx="5.267" cy="5.267" r="5.267" transform="translate(65.111 157.816) rotate(-26.435)" fill="#e9c3bc"/><path d="M400.881,691.8l23.58,9.207,4.744-9.351-21.367-13.567Z" transform="translate(-354.204 -535.911)" fill="#e9c3bc"/><path d="M424.528,688.684l-5.75,10.1-17.9-6.989,6.958-13.708Z" transform="translate(-354.201 -535.912)" fill="#6fabae"/><path d="M464.618,680.277l9.677-28.812-4.21-1.886-.775,1.361-14.262,25.048Z" transform="translate(-387.455 -518.411)" fill="#e9c3bc"/><path d="M492.762,649.577l4.21,1.886-.652,1.94-4.333-2.466Z" transform="translate(-410.13 -518.41)" fill="#e9c3bc"/><circle cx="5.271" cy="5.271" r="5.271" transform="translate(13.631 185.125)" fill="#1dc29e"/><path d="M353.547,675.346a7.689,7.689,0,0,0-2.809-.523v-.006H331.082a7.669,7.669,0,0,0-8.852,7.591h-.009l-.047,7.152-7.056,25.674h.006a14.074,14.074,0,0,0,.518,9.009h26.111c.076-.186.146-.375.214-.566h0l.008-.022.018-.052,1.65-4.633,10.495-29.507a7.714,7.714,0,0,0-.592-14.118Z" transform="translate(-301.252 -533.847)" fill="#6fabae"/><circle cx="5.271" cy="5.271" r="5.271" transform="matrix(0.948, -0.319, 0.319, 0.948, 29.288, 187.085)" fill="#7760db"/><g transform="translate(33.624 185.678)"><g transform="translate(0)"><path d="M367.077,800.185l29.313,14.542,3.969-8-28.6-15.981Z" transform="translate(-367.077 -790.745)" fill="#c96858"/></g></g><g transform="translate(60.455 201.193)"><g transform="translate(0 0)"><path d="M439.042,839.391a4.466,4.466,0,1,0-2.016-5.985A4.466,4.466,0,0,0,439.042,839.391Z" transform="translate(-436.56 -830.923)" fill="#7760db"/></g></g><circle cx="3.259" cy="3.259" r="3.259" transform="translate(45.716 249.438) rotate(-13.283)" fill="#c96858"/><g transform="translate(60.456 201.193)"><g transform="translate(0 0)"><path d="M438.088,838.748a4.466,4.466,0,1,0-.416-6.3A4.466,4.466,0,0,0,438.088,838.748Z" transform="translate(-436.565 -830.923)" fill="#c96858"/></g></g><path d="M414.6,839.122l-14.131,46.554,6.187,2.048,16.422-45.793Z" transform="translate(-353.95 -634.764)" fill="#c96858"/><path d="M409.906,966h-9.8v-3.861h6.522l3.742,2.041a.969.969,0,0,1,.505.851h0A.969.969,0,0,1,409.906,966Z" transform="translate(-353.727 -710.278)" fill="#2a4b6d"/><circle cx="5.271" cy="5.271" r="5.271" transform="matrix(0.948, -0.319, 0.319, 0.948, 12.225, 187.085)" fill="#7760db"/><g transform="translate(16.561 185.678)"><path d="M322.888,800.185,352.2,814.727l3.969-8-28.6-15.981Z" transform="translate(-322.888 -790.745)" fill="#c96858"/></g><g transform="translate(43.391 201.193)"><g transform="translate(0 0)"><path d="M394.854,839.391a4.466,4.466,0,1,0-2.016-5.985A4.465,4.465,0,0,0,394.854,839.391Z" transform="translate(-392.371 -830.923)" fill="#7760db"/></g></g><circle cx="3.259" cy="3.259" r="3.259" transform="translate(28.653 249.438) rotate(-13.283)" fill="#c96858"/><g transform="translate(43.393 201.193)"><g transform="translate(0 0)"><path d="M393.9,838.748a4.466,4.466,0,1,0-.416-6.3A4.466,4.466,0,0,0,393.9,838.748Z" transform="translate(-392.376 -830.923)" fill="#c96858"/></g></g><path d="M370.41,839.122l-14.131,46.554,6.187,2.048,16.422-45.793Z" transform="translate(-326.824 -634.764)" fill="#c96858"/><path d="M365.717,966h-9.8v-3.861h6.522l3.743,2.041a.97.97,0,0,1,.505.851h0A.969.969,0,0,1,365.717,966Z" transform="translate(-326.602 -710.278)" fill="#2a4b6d"/><path d="M314.624,789.314l.259,5.271.013.258a5.27,5.27,0,0,0,5.264,5.012h17.086a5.271,5.271,0,0,0,5.265-5.012l.013-.258.259-5.271Z" transform="translate(-301.254 -604.189)" fill="#c96858"/><path d="M366.532,789.309l-1.676,4.707-12.951-4.074v-.633Z" transform="translate(-324.14 -604.185)" fill="#c96858"/><circle cx="8.978" cy="8.978" r="8.978" transform="translate(168.894 150.592)" fill="#f04f4f"/><path d="M631.033,561.8a1.931,1.931,0,1,1-.051,2.73A1.931,1.931,0,0,1,631.033,561.8Z" transform="translate(-495.122 -464.197)" fill="#ff95a9"/><circle cx="5.02" cy="5.02" r="5.02" transform="translate(167.586 126.237)" fill="#ff95a9"/><path d="M626.711,550.792l0,0a2.7,2.7,0,1,0-4.395,3.017l3.215,3.337,3.141-2.156Z" transform="translate(-489.668 -456.812)" fill="#e9c3bc"/><path d="M655.178,578.956l-20.742-16.6-2.6,2.849,18.434,19.135Z" transform="translate(-495.981 -464.867)" fill="#e9c3bc"/><circle cx="2.51" cy="2.51" r="2.51" transform="translate(172.371 249.737)" fill="#f04f4f"/><circle cx="5.02" cy="5.02" r="5.02" transform="translate(167.5 136.175) rotate(-88.93)" fill="#fff"/><path d="M731.717,636.81H713.051a5.02,5.02,0,0,0-4.7,3.245h0l-3.758,9.931.005,0a5.006,5.006,0,0,0,4.117,6.759l.62,13.4h17.956l7.421-29.49A3.089,3.089,0,0,0,731.717,636.81Z" transform="translate(-540.442 -510.573)" fill="#c96858"/><circle cx="1.931" cy="1.931" r="1.931" transform="matrix(0.35, -0.937, 0.937, 0.35, 216.038, 97.409)" fill="#ff95a9"/><circle cx="5.02" cy="5.02" r="5.02" transform="translate(184.986 127.679) rotate(-14.736)" fill="#fff"/><path d="M840.185,542.114a2.7,2.7,0,0,0-.084.885h0l.316,4.623,3.791.369,1.2-4.475a2.7,2.7,0,1,0-5.221-1.4Z" transform="translate(-623.818 -451.213)" fill="#e9c3bc"/><path d="M815.052,581.868l10.132-24.56,3.649,1.239-6.887,25.662Z" transform="translate(-608.446 -461.77)" fill="#e9c3bc"/><path d="M800.085,567.3,796,565.913l-8.2,19.883-18.055,7.912,4.6,8.9,18.151-10.938v0a3.631,3.631,0,0,0,1.641-2.176h0Z" transform="translate(-580.63 -467.052)" fill="#c96858"/><path d="M659.143,582.524l-17.936-14.355-2.908,3.193,15.941,16.546,14.7,15.262,6.746-7.407Z" transform="translate(-499.944 -468.437)" fill="#c96858"/><path d="M768.4,659.678l-.749-.188,4.788-19.026a2.32,2.32,0,0,0-2.247-2.883h-3.244v-.772h3.244a3.093,3.093,0,0,1,3,3.843Z" transform="translate(-578.916 -510.572)" fill="#7760db"/><circle cx="5.406" cy="5.406" r="5.406" transform="translate(166.579 169.335)" fill="#7760db"/><path d="M762.511,752.917a5.406,5.406,0,1,1-6.237-4.421A5.405,5.405,0,0,1,762.511,752.917Z" transform="translate(-569.603 -579.084)" fill="#7760db"/><path d="M721.482,963.139h5.02v3.475h-7.033a1.076,1.076,0,0,1-1.076-1.076h0a1.077,1.077,0,0,1,.539-.933Z" transform="translate(-549.111 -710.892)" fill="#2a4b6d"/><circle cx="4.367" cy="4.367" r="4.367" transform="translate(168.656 198.327)" fill="#f04f4f"/><path d="M725.506,834.811v49.553h-5.02l-3.715-49.553Z" transform="translate(-548.116 -632.117)" fill="#e9c3bc"/><g transform="translate(166.594 174.741)"><path d="M722.228,762.42v27.953l-8.722.329-2.075-27.875Z" transform="translate(-711.431 -762.42)" fill="#7760db"/></g><path d="M737.783,738.71h-.005c.01-.134.021-.269.021-.406v-3.862a13.371,13.371,0,0,0-5.167-10.558l-.968-.752H713.707a22.263,22.263,0,0,0-2.315,9.884V738.3c0,.137.01.271.021.406h-.005l2.075,27.875H740.47Z" transform="translate(-544.813 -563.562)" fill="#2a4b6d"/><path d="M3.781,0h11.5a0,0,0,0,1,0,0V7.562a0,0,0,0,1,0,0H3.781A3.781,3.781,0,0,1,0,3.781v0A3.781,3.781,0,0,1,3.781,0Z" transform="translate(163.379 94.958)" fill="#2a4b6d"/><path d="M0,0H12.113a0,0,0,0,1,0,0V15.43a0,0,0,0,1,0,0h0A12.113,12.113,0,0,1,0,3.317V0A0,0,0,0,1,0,0Z" transform="translate(172.606 100.412)" fill="#2a4b6d"/><path d="M0,0H12.113a0,0,0,0,1,0,0V7.164a0,0,0,0,1,0,0H7.164A7.164,7.164,0,0,1,0,0V0A0,0,0,0,1,0,0Z" transform="translate(165.929 100.412)" fill="#2a4b6d"/><path d="M749.3,581.43l-5.228-4.058a6.911,6.911,0,0,1-2.363-7.639,14.118,14.118,0,0,0-21.451-16.1,3.233,3.233,0,0,0-1.265,2.381,2.747,2.747,0,0,0,2.746,2.685H732.6v15.072l-4.463.026a2.629,2.629,0,0,1,2.523,3.369l-3.332,11.364a13.967,13.967,0,0,0,13.4,17.9h0C754.04,606.429,759.809,589.589,749.3,581.43Z" transform="translate(-549.479 -457.958)" fill="#2a4b6d"/><circle cx="5.356" cy="5.356" r="5.356" transform="translate(166.927 90.472)" fill="#2a4b6d"/><path d="M780.692,963.139h5.02v3.475h-7.033a1.076,1.076,0,0,1-1.076-1.076h0a1.076,1.076,0,0,1,.54-.933Z" transform="translate(-585.457 -710.892)" fill="#2a4b6d"/><rect width="7.197" height="5.818" transform="translate(321.261 16.142) rotate(176.823)" fill="#2a4b6d"/><rect width="0.772" height="2.197" transform="translate(34.783 29.333) rotate(-5.673)" fill="#7760db"/><path d="M1076.255,412.142a7.678,7.678,0,0,0-3.4-.977c-.067-.005-.133-.01-.2-.013s-.142,0-.212,0c-.1,0-.192,0-.289,0l-21.031,1.168v0l-20.974,1.259-.412,11.309,17.172,2.306,3.084,29.414,28.114-1.561-.2-30.706a7.705,7.705,0,0,0-1.655-12.2Z" transform="translate(-740.232 -372.05)" fill="#c96858"/></g></g></svg>