<svg xmlns="http://www.w3.org/2000/svg" width="414.745" height="603.705" viewBox="0 0 414.745 603.705"><g transform="translate(-724 -195)"><g transform="translate(358.184 18.645)"><rect width="369.372" height="283.436" transform="translate(410.944 301.419)" fill="#e2eeef"/><rect width="369.372" height="35.43" transform="translate(410.944 301.419)" fill="#6fabae"/><circle cx="6.031" cy="6.031" r="6.031" transform="translate(424.513 312.727)" fill="#a9cdce"/><circle cx="6.031" cy="6.031" r="6.031" transform="translate(441.097 312.727)" fill="#a9cdce"/><circle cx="6.031" cy="6.031" r="6.031" transform="translate(458.435 312.727)" fill="#a9cdce"/><line x2="16.584" y2="16.584" transform="translate(745.64 310.465)" fill="none" stroke="#a9cdce" stroke-miterlimit="10" stroke-width="3"/><line x1="16.584" y2="16.584" transform="translate(745.64 310.465)" fill="none" stroke="#a9cdce" stroke-miterlimit="10" stroke-width="3"/><g transform="translate(366 451.47)"><rect width="197" height="46" transform="translate(-0.184 -0.115)" fill="#2a4b6d"/><circle cx="15" cy="15" r="15" transform="translate(14.816 7.885)" fill="#fff"/><rect width="122" height="5" transform="translate(57.816 13.885)" fill="#fff"/><rect width="72.786" height="4.523" transform="translate(58.044 27.138)" fill="#fff"/><g transform="translate(23.368 14.134)"><circle cx="4.452" cy="4.452" r="4.452" transform="translate(2.544)" fill="#2a4b6d"/><path d="M6.784,0h0a6.784,6.784,0,0,1,6.784,6.784v0a0,0,0,0,1,0,0H0a0,0,0,0,1,0,0v0A6.784,6.784,0,0,1,6.784,0Z" transform="translate(0 8.81)" fill="#2a4b6d"/></g></g><g transform="translate(498.272 180.102)"><path d="M646.284,380.432a136.271,136.271,0,0,1,.159,16.429c-1.719-.049-4.07-.968-5.75-.7-.508.08-.534-6.532-1.625-16.256C641.479,379.971,643.887,380.169,646.284,380.432Z" transform="translate(-564.143 -211.257)" fill="#9d8682"/><path d="M627.161,341.007c3.584.087,10.542,18.791,16.474,57.938l8.851-1.832c-.11-12.728,4.177-75.258-8.092-74.529-4.094-.891-18.782-5.552-40.625-12.581-24.578-15.942-28.175-4.892-31.532-3.668,0,0,.586,25.776,11.6,32.452C598.946,343.494,611.754,340.611,627.161,341.007Z" transform="translate(-569.383 -217.407)" fill="#2a4b6d"/><g transform="translate(38.667 75.361)"><g transform="translate(33.815)"><path d="M657.867,294.569c-.139-.114-2.108-1.1-2.253-1.169L636.8,317.876l1.363,3.257c.242-.216,2.328-2.07,2.51-2.293l17.267-22.392A1.213,1.213,0,0,0,657.867,294.569Z" transform="translate(-636.802 -293.4)" fill="#e9c3bc" fill-rule="evenodd"/></g><path d="M661.663,295.486c-.141-.1-1.085-.839-1.155-1.183l-19.593,25.265c0,.12-.05.1-.062.028l-1.265-2.4-31.472-8.629c-.064.148-2.617,7.035-2.649,7.211a1.207,1.207,0,0,0,1.161,1.469l32.524,4.939a1.234,1.234,0,0,0,1.32-.479c0,.059.008.107.03.122a1.243,1.243,0,0,0,1.9-.333l19.339-24.064A1.257,1.257,0,0,0,661.663,295.486Z" transform="translate(-605.446 -293.329)" fill="#c96858" fill-rule="evenodd"/></g><path d="M639.406,393.927l4.453.871a11.879,11.879,0,0,0,2.832-.285c2.327,1.978,5.483,2.789,8,3.7,2.476.91,3.538,1.094,6.371,2.175a.923.923,0,0,1,.539,1.233c-.77,1.916-3.605,1.585-5.314,1.46-1.692-.132-5.263-.91-6.979-1.212-3.879-.669-5.99-1.856-6.332-.991-.234.565-4.3-.313-4.3-1.389C638.666,396.733,639.614,398.205,639.406,393.927Z" transform="translate(-564.173 -210.157)" fill="#203852"/><path d="M622.9,306.6a13.684,13.684,0,0,1-1.358.456c-5.307,1.416-8.41.692-9.872.756-.545.03-1.06.054-1.557.078.212,1.381.433,2.768.645,4.139,4.04.472,10.351,2.017,12.733,2.22,3.1.275,3.462-.042,3.462-.042-.286-.988-3.056-1.427-4.513-1.878a12.9,12.9,0,0,1-2.628-.507c-.427-.421,1.706-.747,3.327-.239,1.654.179,4.909,2.614,5.2,2.825.616.434,3.515.251,4.027.143C633.484,314.827,624.52,307.589,622.9,306.6Z" transform="translate(-566.412 -217.004)" fill="#907a76"/><g transform="translate(9.6 38.72)"><path d="M601.387,307.69c1.776,1.07,3.429,2.272,5.195,3.369a88.824,88.824,0,0,1,9.913,2.674c.771-1.452,1.5-2.622,1.3-2.687-4.786-1.428-10.032-15.473-13.025-22.627-7.789-18.626-14.316-8.876-15.344-20.206-.891-5.6-4.368-14.292-6.577-4.021-.94,6.709-3.111,15.888-4.355,20.989,4.583,4.47,9.673,8.389,14.128,13.011C595.6,301.293,598.483,304.506,601.387,307.69Z" transform="translate(-578.492 -259.423)" fill="#6fabae"/></g><path d="M602.187,316.258c.862-16.763,4.337-58.506,2.492-59.365-.21-.093-1.16,2.389-1.16,2.389s-9-6.205-9.841-6.828a8.215,8.215,0,0,1-1.311-1.014c-3.139-2.861-16.023,4.331-18.336,16.77,0,0-7.053,25.906-3.382,32.895,0,.762.013,1.517.028,2.258-2.182,4.729,1.142,19.751,5.992,20.6C585.017,329.1,601.865,322.534,602.187,316.258Z" transform="translate(-569.59 -221.379)" fill="#a9cdce"/><g transform="translate(8.678 38.72)"><path d="M614.773,314.37c-4.788-1.43-13.982-5.267-16.9-13.3-16.335-11.858-7.355-21.532-8.383-32.861-.891-5.6-4.368-14.292-6.577-4.021-1.368,9.737-5.316,24.67-5.277,24.792,6.76,21.072,24.317,29.356,37.409,28.572C615.382,315.129,615.157,314.483,614.773,314.37Z" transform="translate(-577.637 -259.423)" fill="#6fabae"/></g><path d="M624.227,308.869a11.357,11.357,0,0,1-1.383.39c-5.377,1.163-8.432.292-9.9.294l-1.563,0c.151,1.392.3,2.782.451,4.176,4.011.65,13.084,1.367,11.65.843-1.132-.17,5.511,2.133,5.8,2.36.6.459,2.191-.458,2.7-.537C633.086,316.712,625.784,309.937,624.227,308.869Z" transform="translate(-566.313 -216.826)" fill="#9d8682"/><g transform="translate(21.374 9.515)"><path d="M613.458,244.118c.572-2.815,2.065-5.743-.813-7.777-1.094-.784-.554-2.243-6.36-4-.426-.094-3.328,6.013-4.075,8.487-.163.283.22,1.489-.045.482-1.188-4-4.583-2.735-4.771-.8-.268,2.778-1.051,1.012-2.127,1.436-.085.035-1.633,3.914-1.633,3.914l-4.223,7.027s1.392,5.327,7.691,8.87c3.969,2.234,4.981-1.04,4.981-1.04s2.505-6.621,3.38-6.151c4.59,2.47,2.179,2.408,5.549-5.475.081-.193,1.187.545,2.02.521C613.635,249.6,612.83,247.125,613.458,244.118Z" transform="translate(-589.41 -232.342)" fill="#9d8682"/><path d="M599.425,247.021c-.316-.677,2.917,10.172,2.917,10.172s1.3-3.5,2.238-3.823C604.685,253.333,601.9,252.3,599.425,247.021Z" transform="translate(-588.626 -231.193)" fill="#907a76"/></g><path d="M618.563,235.535c.261-3.254-1.461-7.292-7.14-7.35-2.131-.022-2.848-3.055-4.589-2.033-3.486-3.359-8.841,1.456-9.986,3.906a9.189,9.189,0,0,0-.593,1.843c-1.9-.16-2.351,1.237-2.493,2.9-4.824,1.628,1.159,8.224-.21,10.954-1.839,3.659,3.7-.151,4.3-1.047,0,0-.877-.626-.206-2.252.752-1.858,3.364-3.287,3.914.979.063.614.916-1.846,1.775-4.186,2.257,2.06,5.256.8,7.4-1.017,2.107.806,4.264,1.351,5.5.829A3.944,3.944,0,0,0,618.563,235.535Z" transform="translate(-567.845 -223.403)" fill="#2a4b6d"/><g transform="translate(5.427 34.601)"><path d="M616.692,313.95c-8.881-5.457-11.263-7.79-15.688-16.244-6.211-11.851-8.5-26.147-12.067-38.426-2.2-5.993-13.283-3.859-13.635,7.823-1.745,12.441,6.8,31.209,12.593,36.718,6.825,8.038,20.365,14.289,28.03,14.809Z" transform="translate(-574.588 -255.571)" fill="#a9cdce"/><path d="M604.89,316.1h0c-7.121-3.023-13.445-7.383-17.33-11.962-5.527-5.254-14.523-24.126-12.7-37.075.137-4.64,2.04-8.416,5.226-10.31a7.161,7.161,0,0,1,6.417-.674,5.2,5.2,0,0,1,2.92,3.086c1.021,3.5,1.9,7.056,2.849,10.822,2.339,9.387,4.758,19.092,9.2,27.551,4.327,8.267,6.5,10.513,15.5,16.062l.274.164-.883,5.382-.435-.028A36.4,36.4,0,0,1,604.89,316.1Zm-18.757-59.18a6.2,6.2,0,0,0-5.527.626c-2.906,1.729-4.656,5.237-4.783,9.607-1.789,12.735,7.006,31.2,12.447,36.377,3.771,4.438,10.111,8.807,16.995,11.728a36.514,36.514,0,0,0,10.287,2.906l.651-3.951c-8.879-5.486-11.25-7.984-15.592-16.275-4.487-8.556-6.92-18.309-9.279-27.751-.933-3.755-1.823-7.3-2.823-10.758A4.257,4.257,0,0,0,586.133,256.923Z" transform="translate(-574.623 -255.604)" fill="#a9cdce"/></g><ellipse cx="6" cy="5.5" rx="6" ry="5.5" transform="translate(34.544 -0.747)" fill="#2a4b6d"/><ellipse cx="5.5" cy="6" rx="5.5" ry="6" transform="translate(29.544 -2.747)" fill="#2a4b6d"/><ellipse cx="5.5" cy="6" rx="5.5" ry="6" transform="translate(23.544 0.253)" fill="#2a4b6d"/><ellipse cx="6" cy="5.5" rx="6" ry="5.5" transform="translate(20.544 5.253)" fill="#2a4b6d"/><circle cx="6" cy="6" r="6" transform="translate(17.544 13.253)" fill="#2a4b6d"/><circle cx="5.5" cy="5.5" r="5.5" transform="translate(16.544 6.253)" fill="#2a4b6d"/><circle cx="5.5" cy="5.5" r="5.5" transform="translate(19.544 -0.747)" fill="#2a4b6d"/><ellipse cx="6" cy="5.5" rx="6" ry="5.5" transform="translate(24.544 -3.747)" fill="#2a4b6d"/></g></g><g transform="translate(-8 50)"><g transform="translate(981.557 372.42)"><path d="M354.279,456.113l17.57-.534-20.69-105.51-10.294.313Z" transform="translate(-224.909 -229.162)" fill="#a9cdce"/><path d="M367.515,440.446l9.058-.329-24.2-89.313-5.183-.5Z" transform="translate(-226.544 -229.221)" fill="#8cbcbe"/><path d="M248.594,526.657s-5.244,89-12.1,108.9c-2.912,8.451-23.8,9.411-24.6,12.638s14.117-.269,25.142,0,9.967-8.106,11.562-17.478c4.84-28.436,17.007-34.822,18.352-68.165s6.655-41.814,6.655-41.814Z" transform="translate(-191.553 -273.29)" fill="#e9c3bc"/><path d="M327.838,527.888S349.1,614.474,348.424,635.51c-.287,8.934-22.133,6.935-22.134,10.261,0,2.521,15.148,1.438,26.379,1.655,11.026.214,5.978-6.805,5.888-20.113-.2-28.844,5.97-38.291-2.588-70.545s-5.984-41.914-5.984-41.914Z" transform="translate(-221.14 -271.768)" fill="#e9c3bc"/><path d="M332.4,323.725a216.331,216.331,0,0,0,1.815,27.1H288.347s6.252-13.055,1.815-26.163Z" transform="translate(-211.33 -222.351)" fill="#f8aa9e"/><path d="M275.724,348.477,233.373,543.829H349.734l-28.7-195.353Z" transform="translate(-197.116 -228.75)" fill="#c96858"/><path d="M302.368,265.151s8.92-3.775,7.979-18.7l12.638-6.992s-.556,17.348,3.127,24.239C326.111,263.7,316.976,271.885,302.368,265.151Z" transform="translate(-214.955 -200.564)" fill="#dfa49b"/><path d="M311.117,194.749s-13.711,4.168-13.913,15.865-4.639,13.176-1.21,14.789.71,12.1,7.01,12.3,18-7.059,18-9.882S330.676,190.918,311.117,194.749Z" transform="translate(-212.972 -188.926)" fill="#e9c3bc"/><g transform="translate(0 52.963)"><path d="M267.485,273.237s-17.54,1.714-34.9,29.268-5.736-30.9-24.357-35.685c-23.585-6.055-1.1,4.977,0,9.436,5.284,21.487-4.151,57.371,15.1,54.729s40.763-40.009,40.763-40.009Z" transform="translate(-187.84 -260.142)" fill="#e9c3bc"/><path d="M210.262,268.933a20.988,20.988,0,0,0-12.373-9.336c-8.662-2.362,3.037,4.667,3.037,4.667a36.059,36.059,0,0,1-13.723-5.153c-6.411-4.239-1.876,12.693,17.284,13.338Z" transform="translate(-184.473 -258.432)" fill="#e9c3bc"/></g><path d="M344.437,326.862h-69.5s1.847-20.421,10.614-61.258c0,0,23.2-9.525,47.014-.017Z" transform="translate(-207.862 -206.227)" fill="#c96858"/><path d="M291.142,264.406s-1.5,19.078-15.846,38.143l-22.787-8.427S264.894,264.392,291.142,264.406Z" transform="translate(-202.064 -207.014)" fill="#c96858"/><path d="M299.736,203.915s-2.609,8.72,8.481,12.2c12.307,3.864-9.645,23.844,13.345,29.088,16.2,3.694,24.672-6.721,14.991-17.344-7.655-8.4,1.008-17.948-10.151-29.108C322.082,194.431,306.335,190.282,299.736,203.915Z" transform="translate(-214.205 -188.964)" fill="#2a4b6d"/><path d="M232.664,680.715h12.2a2.141,2.141,0,0,1,2.171,2.109v5.366a2.277,2.277,0,0,1-2.309,2.244H210.237s-.656-2.3.887-3.15c1.953-1.077,18.514-5.731,20.883-6.47A2.191,2.191,0,0,1,232.664,680.715Z" transform="translate(-191.098 -314.651)" fill="#2a4b6d"/><path d="M345.214,680.715h12.2a2.141,2.141,0,0,1,2.171,2.109v5.366a2.277,2.277,0,0,1-2.309,2.244H322.786s-.656-2.3.888-3.15c1.953-1.077,18.514-5.731,20.883-6.47A2.193,2.193,0,0,1,345.214,680.715Z" transform="translate(-220.198 -314.651)" fill="#2a4b6d"/><circle cx="11.122" cy="11.122" r="11.122" transform="translate(78.243 0)" fill="#2a4b6d"/><path d="M290,350" transform="translate(-211.757 -229.144)" fill="#8cbcbe"/><path d="M353,361" transform="translate(-228.046 -231.988)" fill="#8cbcbe"/><path d="M336.729,360.311l-1.592-10.835H289.55L287.2,360.311Z" transform="translate(-211.033 -229.009)" fill="#a9cdce"/><path d="M342.654,269.508s-4.082,16.681,15.863,42.426-31-5.189-41.867,10.67c-13.763,20.087,4.3,2.734,8.866,3.23,22,2.39,52.484,23.539,56.591,4.549,2.7-12.471-8.341-30.985-16.238-42.228A51.922,51.922,0,0,0,349.8,273.3Z" transform="translate(-217.334 -208.333)" fill="#e9c3bc"/><path d="M343.8,264.083s.417,20.442,14.536,41.666l25.01-7.22S371.791,265.7,343.8,264.083Z" transform="translate(-225.666 -206.93)" fill="#c96858"/></g><g transform="translate(970 358)"><circle cx="26" cy="26" r="26" fill="#efd36a"/><path d="M69.008,36.213H63.9a1.689,1.689,0,1,0,0,3.373h.177v9.83H62.112v3.375h8.861V49.416h-1.96v-13.2Zm-2.742-7.451A2.841,2.841,0,1,1,63.251,31.6a2.927,2.927,0,0,1,3.015-2.836" transform="translate(-40.264 -17.895)" fill="#fff"/></g></g></g></svg>