<svg xmlns="http://www.w3.org/2000/svg" xmlns:xlink="http://www.w3.org/1999/xlink" width="596.691" height="504.609" viewBox="0 0 596.691 504.609"><defs><clipPath id="a"><path d="M872.522,322.2s36.852-99.067,110.505-109.412c54.107,71.223-16.156,143.64-16.156,143.64l-84.908,36.532Z" transform="translate(-872.522 -212.792)" fill="#2a4b6d"/></clipPath><clipPath id="b"><path d="M894.1,406.211s72.956-49.607,121.748-15.988c-5.883,120.85-160.021,121.9-160.021,121.9Z" transform="translate(-855.823 -378.537)" fill="#ffd131"/></clipPath><clipPath id="c"><path d="M814.325,329.212S800.114,224.174,867.547,185.66C971.156,270.036,887.9,371.708,887.9,371.708Z" transform="translate(-813.076 -185.66)" fill="#d48679"/></clipPath></defs><g transform="translate(-348 -185.66)"><g transform="translate(699.667 185.66)"><g transform="translate(44.95 20.516)"><path d="M872.522,322.2s36.852-99.067,110.505-109.412c54.107,71.223-16.156,143.64-16.156,143.64l-84.908,36.532Z" transform="translate(-872.522 -212.792)" fill="#2a4b6d"/><g clip-path="url(#a)"><path d="M993.7,322.317l-76.638,13.852,42.1-75.051,44.6-9.539-.486-2.275-42.6,9.11,26.071-46.479-2.566-.183L936.416,296.9l-22.265-42.795-1.22,2.7,22.123,42.524-53.136,94.728,2.03,1.14,31.635-56.4,76.252-13.783Z" transform="translate(-874.813 -212.539)" fill="#fff"/></g></g><path d="M894.1,406.211s72.956-49.607,121.748-15.988c-5.883,120.85-160.021,121.9-160.021,121.9Z" transform="translate(-823.5 -232.693)" fill="#efd36a"/><g transform="translate(32.323 145.844)"><path d="M894.1,406.211s72.956-49.607,121.748-15.988c-5.883,120.85-160.021,121.9-160.021,121.9Z" transform="translate(-855.823 -378.537)" fill="#ffd131"/><g clip-path="url(#b)"><path d="M976.227,475.236l-61.781-24.43,104.342-59.757-1.158-2.02L954.3,425.3l13.176-47.515-2.7,1.033-13.346,48.126-85.9,49.2,1.158,2.021,45.175-25.872,61.545,24.336Z" transform="translate(-858.19 -378.353)" fill="#fff"/></g></g><path d="M814.325,329.212S800.114,224.174,867.547,185.66C971.156,270.036,887.9,371.708,887.9,371.708Z" transform="translate(-813.076 -185.66)" fill="#d48679"/><g clip-path="url(#c)"><path d="M922.164,268.462l-.507-2.469-65.25,44.527L871.2,185.753l-2.309-.273L858.4,273.985,823.316,244.02l.047,3.1,34.7,29.643h0L849.55,348.6l2.107,1.979,4.387-37Z" transform="translate(-815.573 -185.616)" fill="#fff"/></g></g><rect width="370.513" height="284.312" transform="translate(411.138 299.718)" fill="#e2eeef"/><rect width="370.513" height="35.539" transform="translate(411.138 299.718)" fill="#6fabae"/><circle cx="6.049" cy="6.049" r="6.049" transform="translate(424.749 311.06)" fill="#a9cdce"/><circle cx="6.049" cy="6.049" r="6.049" transform="translate(441.384 311.06)" fill="#a9cdce"/><circle cx="6.049" cy="6.049" r="6.049" transform="translate(458.776 311.06)" fill="#a9cdce"/><line x2="16.635" y2="16.635" transform="translate(746.869 308.791)" fill="none" stroke="#a9cdce" stroke-miterlimit="10" stroke-width="3"/><line x1="16.635" y2="16.635" transform="translate(746.869 308.791)" fill="none" stroke="#a9cdce" stroke-miterlimit="10" stroke-width="3"/><g transform="translate(752.347 395.811)"><path d="M1072.352,587.068c-.457-2.121-7.02-7.216-15.317-11.361a80.669,80.669,0,0,0,.934-23.54c7.747-2.4,15.666-5.745,16.783-9.6,2.267-7.826-7.554-27.692-10.454-29.565-1.856-1.2-10.37-.1-19.347,2.961a80.6,80.6,0,0,0-15.532-17.413c3.793-7.191,7.05-15.188,5.108-18.714-3.931-7.137-24.923-14.24-28.3-13.514-2.115.455-7.184,6.978-11.322,15.236a80.59,80.59,0,0,0-23.842-1.69c-2.38-7.471-5.622-14.87-9.339-15.947-7.826-2.268-27.693,7.554-29.566,10.454-1.115,1.726-.243,9.21,2.345,17.469a80.668,80.668,0,0,0-18.965,16.3c-6.572-3.276-13.371-5.744-16.546-3.995-7.137,3.93-14.239,24.922-13.513,28.3.409,1.9,5.722,6.191,12.792,10.044a80.607,80.607,0,0,0-1.721,25.945c-6.559,2.282-12.514,5.209-13.472,8.514-2.268,7.826,7.553,27.692,10.454,29.565,1.6,1.031,8.116.361,15.618-1.791a80.629,80.629,0,0,0,17.632,19.466c-3.01,6.234-5.134,12.487-3.48,15.492,3.931,7.137,24.923,14.24,28.3,13.514,1.906-.411,6.212-5.749,10.073-12.845a80.645,80.645,0,0,0,25.606.873c2.324,6.907,5.369,13.372,8.825,14.373,7.826,2.268,27.692-7.554,29.565-10.454,1.12-1.735.234-9.285-2.384-17.593a80.58,80.58,0,0,0,17.844-16.759c6.917,3.558,14.344,6.433,17.706,4.581C1065.975,611.435,1073.078,590.444,1072.352,587.068Zm-110.676,6.395a36.272,36.272,0,1,1,48.362-17.1A36.271,36.271,0,0,1,961.676,593.463Z" transform="translate(-882.745 -463.583)" fill="#8cbcbe"/><g transform="translate(43.552 44.936)"><path d="M969.713,621.2a51.618,51.618,0,1,1,68.823-24.335A51.677,51.677,0,0,1,969.713,621.2Zm44.172-92.5a50.885,50.885,0,1,0,23.99,67.846A50.943,50.943,0,0,0,1013.885,528.706Z" transform="translate(-940.342 -523.01)" fill="#fff"/></g><g transform="translate(20.157 22.468)"><path d="M1056.952,611.976c-.29-.182-.578-.367-.859-.563a73.987,73.987,0,0,1-145.7-9.16h-.007c-.331-.077-.66-.167-.985-.266a74.946,74.946,0,0,0,147.549,9.991Z" transform="translate(-909.402 -519.8)" fill="#fff"/><path d="M987.393,495.957a73.615,73.615,0,0,1,47.513,5.507c.3.144.588.3.886.451.031-.339.08-.676.128-1.013-.2-.1-.4-.208-.6-.305a74.566,74.566,0,0,0-47.938-5.622C987.393,495.3,987.4,495.63,987.393,495.957Z" transform="translate(-928.417 -493.297)" fill="#fff"/></g></g><g transform="translate(515.555 215.407)"><path d="M644.127,380.273a95.547,95.547,0,0,1,.111,11.519c-1.205-.034-2.854-.679-4.032-.493-.356.056-.374-4.58-1.139-11.4C640.758,379.95,642.447,380.089,644.127,380.273Z" transform="translate(-586.532 -262.773)" fill="#9d8682"/><path d="M610.749,329.192c2.513.061,7.391,13.176,11.551,40.624l6.206-1.285c-.077-8.925,2.929-52.769-5.674-52.257-2.87-.625-13.169-3.893-28.485-8.821-17.233-11.178-19.755-3.43-22.109-2.572,0,0,.411,18.073,8.131,22.754C590.965,330.935,599.946,328.914,610.749,329.192Z" transform="translate(-570.236 -243.647)" fill="#2a4b6d"/><g transform="translate(27.112 51.721)"><g transform="translate(23.71)"><path d="M651.572,294.22c-.1-.08-1.478-.772-1.58-.82L636.8,310.562l.956,2.284c.169-.151,1.633-1.451,1.76-1.608l12.107-15.7A.851.851,0,0,0,651.572,294.22Z" transform="translate(-636.802 -293.4)" fill="#e9c3bc" fill-rule="evenodd"/></g><path d="M644.863,295.132c-.1-.071-.761-.588-.81-.829l-13.738,17.715c0,.084-.035.067-.044.02l-.887-1.686L607.318,304.3c-.045.1-1.835,4.932-1.857,5.056a.847.847,0,0,0,.814,1.03l22.8,3.463a.865.865,0,0,0,.926-.336c0,.042.005.075.021.085a.871.871,0,0,0,1.333-.234l13.56-16.873A.881.881,0,0,0,644.863,295.132Z" transform="translate(-605.446 -293.62)" fill="#c96858" fill-rule="evenodd"/></g><path d="M639.188,393.927l3.122.611a8.33,8.33,0,0,0,1.986-.2c1.632,1.387,3.844,1.955,5.61,2.6,1.736.638,2.481.767,4.467,1.525a.647.647,0,0,1,.378.864c-.54,1.344-2.528,1.112-3.726,1.024s-3.69-.638-4.893-.85c-2.72-.469-4.2-1.3-4.44-.695-.164.4-3.016-.219-3.016-.974C638.669,395.895,639.334,396.927,639.188,393.927Z" transform="translate(-586.436 -266.193)" fill="#203852"/><path d="M619.083,306.6a9.591,9.591,0,0,1-.952.32,19.953,19.953,0,0,1-6.922.53c-.382.021-.743.038-1.092.054.149.969.3,1.941.452,2.9,2.833.331,7.258,1.414,8.928,1.557,2.173.193,2.427-.03,2.427-.03-.2-.693-2.143-1-3.164-1.316a9.046,9.046,0,0,1-1.843-.355c-.3-.295,1.2-.524,2.333-.168,1.16.126,3.442,1.833,3.649,1.981a7.129,7.129,0,0,0,2.823.1C626.5,312.369,620.216,307.294,619.083,306.6Z" transform="translate(-579.473 -244.898)" fill="#907a76"/><g transform="translate(6.731 26.029)"><path d="M594.545,293.266c1.245.75,2.4,1.593,3.642,2.362a62.279,62.279,0,0,1,6.951,1.875c.541-1.018,1.053-1.838.91-1.884-3.356-1-7.034-10.849-9.133-15.866-5.462-13.06-10.038-6.224-10.759-14.168-.625-3.927-3.062-10.021-4.612-2.82-.659,4.7-2.182,11.14-3.053,14.717,3.214,3.134,6.783,5.882,9.906,9.123C590.49,288.781,592.509,291.034,594.545,293.266Z" transform="translate(-578.492 -259.423)" fill="#6fabae"/></g><path d="M592.446,296.7c.6-11.754,3.041-41.023,1.747-41.625-.147-.065-.814,1.675-.814,1.675s-6.314-4.351-6.9-4.788a5.759,5.759,0,0,1-.919-.711c-2.2-2.006-11.235,3.037-12.857,11.759,0,0-4.945,18.164-2.371,23.065,0,.535.009,1.064.02,1.583-1.53,3.316.8,13.849,4.2,14.441C580.407,305.7,592.22,301.1,592.446,296.7Z" transform="translate(-569.59 -231.295)" fill="#a9cdce"/><g transform="translate(6.084 26.029)"><path d="M603.676,297.95c-3.357-1-9.8-3.693-11.85-9.323-11.453-8.315-5.157-15.1-5.878-23.041-.625-3.927-3.062-10.021-4.612-2.82-.959,6.827-3.727,17.3-3.7,17.383,4.74,14.775,17.05,20.584,26.23,20.034C604.1,298.483,603.945,298.03,603.676,297.95Z" transform="translate(-577.637 -259.423)" fill="#6fabae"/></g><path d="M620.389,308.869a7.97,7.97,0,0,1-.969.274,20.162,20.162,0,0,1-6.94.206h-1.1c.106.976.213,1.951.316,2.928,2.812.456,9.174.959,8.169.591-.794-.119,3.864,1.5,4.066,1.654.421.322,1.536-.321,1.9-.377C626.6,314.368,621.481,309.618,620.389,308.869Z" transform="translate(-579.782 -245.451)" fill="#9d8682"/><g transform="translate(14.987 5.552)"><path d="M606.271,240.6c.4-1.974,1.448-4.027-.57-5.453-.767-.55-.389-1.573-4.46-2.8-.3-.066-2.333,4.216-2.857,5.951-.114.2.154,1.044-.032.338-.833-2.8-3.214-1.918-3.345-.563-.188,1.948-.737.709-1.491,1.007-.06.024-1.145,2.744-1.145,2.744l-2.961,4.927a11.181,11.181,0,0,0,5.393,6.219c2.783,1.567,3.493-.729,3.493-.729s1.757-4.643,2.37-4.313c3.218,1.732,1.528,1.689,3.891-3.839.057-.135.833.382,1.416.365C606.4,244.44,605.831,242.707,606.271,240.6Z" transform="translate(-589.41 -232.342)" fill="#9d8682"/><path d="M599.418,247.012c-.222-.475,2.045,7.132,2.045,7.132s.91-2.455,1.569-2.681C603.107,251.438,601.151,250.713,599.418,247.012Z" transform="translate(-591.847 -235.914)" fill="#907a76"/></g><path d="M610.58,232.387c.183-2.281-1.025-5.113-5.006-5.154-1.494-.015-2-2.142-3.217-1.425-2.445-2.355-6.2,1.021-7,2.739a6.443,6.443,0,0,0-.416,1.292c-1.334-.112-1.648.867-1.748,2.031-3.382,1.142.813,5.766-.147,7.681-1.289,2.566,2.592-.106,3.013-.734,0,0-.615-.439-.144-1.579.527-1.3,2.358-2.3,2.744.687.044.43.642-1.295,1.245-2.935,1.583,1.444,3.685.56,5.188-.713,1.478.565,2.99.947,3.856.581A2.765,2.765,0,0,0,610.58,232.387Z" transform="translate(-575.018 -225)" fill="#2a4b6d"/><g transform="translate(3.805 23.142)"><path d="M604.255,296.643c-6.227-3.826-7.9-5.462-11-11.39-4.355-8.309-5.957-18.334-8.461-26.943-1.545-4.2-9.313-2.705-9.561,5.485-1.224,8.723,4.771,21.883,8.83,25.745,4.786,5.636,14.279,10.019,19.654,10.383Z" transform="translate(-574.732 -255.709)" fill="#a9cdce"/><path d="M595.845,298.024h0a33.513,33.513,0,0,1-12.151-8.387c-3.875-3.684-10.183-16.917-8.9-26,.1-3.254,1.431-5.9,3.664-7.229a5.021,5.021,0,0,1,4.5-.473A3.645,3.645,0,0,1,585,258.1c.716,2.456,1.335,4.948,2,7.588,1.64,6.582,3.336,13.387,6.451,19.318,3.034,5.8,4.56,7.372,10.87,11.262l.192.115-.619,3.774-.3-.02A25.523,25.523,0,0,1,595.845,298.024Zm-13.152-41.5a4.344,4.344,0,0,0-3.875.439c-2.038,1.212-3.264,3.672-3.354,6.736-1.255,8.929,4.913,21.874,8.727,25.506a33.309,33.309,0,0,0,11.916,8.223,25.6,25.6,0,0,0,7.213,2.038l.457-2.771c-6.225-3.847-7.888-5.6-10.932-11.412-3.146-6-4.852-12.838-6.506-19.458-.654-2.633-1.278-5.118-1.98-7.543A2.985,2.985,0,0,0,582.693,256.529Z" transform="translate(-574.623 -255.604)" fill="#a9cdce"/></g><circle cx="4" cy="4" r="4" transform="translate(24.543 -1.747)" fill="#2a4b6d"/><circle cx="4" cy="4" r="4" transform="translate(20.543 -2.747)" fill="#2a4b6d"/><circle cx="4" cy="4" r="4" transform="translate(16.543 -0.747)" fill="#2a4b6d"/><circle cx="4" cy="4" r="4" transform="translate(14.543 2.253)" fill="#2a4b6d"/><circle cx="4" cy="4" r="4" transform="translate(12.543 8.253)" fill="#2a4b6d"/><circle cx="4" cy="4" r="4" transform="translate(11.543 3.253)" fill="#2a4b6d"/><circle cx="4" cy="4" r="4" transform="translate(13.543 -1.747)" fill="#2a4b6d"/><circle cx="4" cy="4" r="4" transform="translate(17.543 -3.747)" fill="#2a4b6d"/></g><g transform="translate(600.661 390.445)"><path d="M920.264,502.731c.068,7.264-3.747,22.734-23.785,32.9-24.82,12.6-1.731,47.539-24.183,61.609s-11.222,42.75-35.914,39.93c-26.681-3.047-23.589-40.224.191-55.483,18.559-11.909-3.45-30.831,23.667-57.956,9.007-9.008-.55-22.266,10.713-41.156C890.438,449.9,920.068,481.718,920.264,502.731Z" transform="translate(-715.157 -459.426)" fill="#2a4b6d"/><path d="M797.875,780.173l130.917.085-3.735-53.731,8.957,14.183,48.66-18.872-9.247-18.583c-18.4-37.494-52.4-62.62-94.144-63.908q-2.585-.081-5.26-.082c-22.079-.014-39.819,2.989-53.594,6.937a98.556,98.556,0,0,0-50.885,35.186L751.4,709.736l47.276-.8Z" transform="translate(-699.03 -501.057)" fill="#c96858"/><path d="M884.347,610.3l-2.571,19.289s-1.1,10.008,16.779,10.02c7.279,0,11.974-1.651,14.982-3.617a10.816,10.816,0,0,0,4.632-10.514l-5.515-41.533Z" transform="translate(-730.82 -487.568)" fill="#dfa49b"/><path d="M1011.66,750.305s23.318,51.721,13.3,65.892-143.3-11.378-143.3-11.378l.014-22.073,100.768,6.737-14.018-22.7Z" transform="translate(-730.796 -528.134)" fill="#e9c3bc"/><path d="M870.045,593.22c-5.038.88-9.846,1.015-12.721-.653-19.181-20.037-15.513-85.458-15.513-85.458l54.337-1.4,10.234,41.225A35.638,35.638,0,0,1,899.2,578.3h0A57.179,57.179,0,0,1,870.045,593.22Z" transform="translate(-721.009 -468.489)" fill="#e9c3bc"/><path d="M922.443,537.316c-3.477-2.208-8.793-.56-11.874,3.683s-2.762,9.47.715,11.678,8.793.56,11.875-3.683S925.92,539.524,922.443,537.316Z" transform="translate(-737.328 -475.957)" fill="#fca372"/><path d="M829.143,777.4a6.27,6.27,0,1,0,6.274-6.266A6.271,6.271,0,0,0,829.143,777.4Z" transform="translate(-717.989 -533.213)" fill="#fff"/><path d="M841.883,493.234c-.588,7.406,4.166,22.927,33.891,32.018,36.817,11.259-1.534,64.3,31.593,77.207s15.15,26.881,52.8,22.44c40.688-4.8,38.481-42.486,3.419-56.524-27.363-10.955,17.2-45.082-22.127-71-13.063-8.607-7.584-9.276-23.411-27.807C890.67,437.509,843.585,471.811,841.883,493.234Z" transform="translate(-721.084 -456.486)" fill="#2a4b6d"/><ellipse cx="22.737" cy="24.953" rx="22.737" ry="24.953" transform="matrix(0.622, -0.783, 0.783, 0.622, 97.406, 45.082)" fill="#2a4b6d"/><g transform="translate(0 192.379)"><g transform="translate(127.159 85.99)"><rect width="120.833" height="11.449" fill="#8cbcbe"/></g><path d="M843.381,711.011l-161.239-.106,47.64,97.347,160.029.1Z" transform="translate(-682.142 -710.905)" fill="#6fabae"/><path d="M810.878,776.418a5.272,5.272,0,1,0,5.276-5.268A5.271,5.271,0,0,0,810.878,776.418Z" transform="translate(-713.534 -725.596)" fill="#fff"/></g></g><g transform="translate(607.359 205.428)"><g transform="translate(0 5.969)"><rect width="45.218" height="28.776" transform="translate(0.23 0.238)" fill="#fff"/><path d="M736.679,248.949H691V219.7h45.679Zm-45.218-.476h44.756v-28.3H691.461Z" transform="translate(-691 -219.697)" fill="#2a4b6d"/></g><path d="M714.059,234.539l-22.609-14.388.242-.406L714.3,234.133Z" transform="translate(-691.11 -213.74)" fill="#2a4b6d"/><path d="M721.287,234.539l-.242-.406,22.609-14.388.242.406Z" transform="translate(-698.327 -213.74)" fill="#2a4b6d"/><path d="M748.145,226.216a7.206,7.206,0,1,1,7.207-7.206A7.215,7.215,0,0,1,748.145,226.216Z" transform="translate(-703.177 -211.803)" fill="#c96858"/></g><g transform="translate(606.363 445.654)"><rect width="68.534" height="46.7" fill="#e5b2a7"/><path d="M776.21,602.784,763.474,591.26H776.21Z" transform="translate(-707.676 -544.56)" fill="#e5b2a7"/></g><g transform="translate(617.122 392.383)"><path d="M735.844,532.806l-15.725-.167a28.143,28.143,0,0,0,.793-8.451,4.683,4.683,0,0,0-2.18-3.369c-15.362-9.716-11.526-20.7-11.526-20.7s1.749-13.967,21.566-15.111c21.127-1.219,19.664,17.534,19.664,17.534s.853,10.452-10.177,17.425a6.333,6.333,0,0,0-2.832,4.541A22.613,22.613,0,0,0,735.844,532.806Z" transform="translate(-704.611 -465.364)" fill="#efd36a"/><path d="M724.4,547.969l-.06,5.633c-.022,2.11,1.338,3.853,3.023,3.87l9.576.1c1.685.017,3.082-1.695,3.1-3.8l.06-5.633Z" transform="translate(-708.893 -480.732)" fill="#6fabae"/><path d="M729.65,560.55l1.055,2.585,5.954.063,1.329-2.56Z" transform="translate(-710.187 -483.8)" fill="#2a4b6d"/><path d="M729.886,516.022c.2,0,.425-.009.642-.017l-.237,22.312,1.074.011.238-22.4a18.183,18.183,0,0,0,2.372-.4c.009.42.017.832.009,1.218l-.141,7.381q-.136,7.112-.271,14.222l1.074.011q.221-11.57.442-23.14a9.191,9.191,0,0,0,3.49-1.834c3.686-3.451-2.544-7.289-4.234-2.426a11.041,11.041,0,0,0-.387,3.691,23.446,23.446,0,0,1-2.472.545s.04-2.06.029-3.382a3.109,3.109,0,0,0-.723-2.056c-2.749-3.078-8.653-.932-6.309,3.546C725.493,515.235,727.844,516,729.886,516.022Zm5.26-3.282c-.009-.538.815-4.828,3.45-2.418a1.159,1.159,0,0,1,.38,1c-.215,1.508-2.367,2.511-3.887,3A13.073,13.073,0,0,1,735.146,512.74Zm-9.285-3.335a3.349,3.349,0,0,1,4.027.783,2.371,2.371,0,0,1,.683,1.7l-.036,3.43a5.288,5.288,0,0,1-5.132-2.187C724.589,511.9,724.733,510.093,725.861,509.4Z" transform="translate(-708.796 -471.063)" fill="#2a4b6d"/><g transform="translate(44.079 6.749)"><path d="M762.442,477.244a.832.832,0,0,1,.012-1.177l8.024-7.855a.832.832,0,1,1,1.164,1.189l-8.024,7.855A.831.831,0,0,1,762.442,477.244Z" transform="translate(-762.205 -467.974)" fill="#efd36a"/></g><g transform="translate(0 6.196)"><path d="M713.18,476.693a.832.832,0,0,0,.013-1.177l-7.856-8.023a.832.832,0,0,0-1.189,1.164L712,476.681A.832.832,0,0,0,713.18,476.693Z" transform="translate(-703.911 -467.243)" fill="#efd36a"/></g><g transform="translate(23.488)"><path d="M735.8,471.941a.83.83,0,0,1-.823-.84l.119-11.228a.832.832,0,1,1,1.664.017l-.12,11.228A.83.83,0,0,1,735.8,471.941Z" transform="translate(-734.974 -459.049)" fill="#efd36a"/></g></g><g transform="translate(348 384.028)"><rect width="197.355" height="46.125" fill="#2a4b6d"/><circle cx="14.745" cy="14.745" r="14.745" transform="translate(15.123 8.318)" fill="#fff"/><rect width="122.496" height="4.537" transform="translate(58.223 14.367)" fill="#fff"/><rect width="73.011" height="4.537" transform="translate(58.223 27.221)" fill="#fff"/><g transform="translate(23.441 14.178)"><circle cx="4.466" cy="4.466" r="4.466" transform="translate(2.552)" fill="#2a4b6d"/><path d="M6.805,0h0a6.805,6.805,0,0,1,6.805,6.805v0a0,0,0,0,1,0,0H0a0,0,0,0,1,0,0v0A6.805,6.805,0,0,1,6.805,0Z" transform="translate(0 8.837)" fill="#2a4b6d"/></g></g><path d="M921.5,372.7" transform="translate(-139.848 -45.611)" fill="#f2f2f2"/><g transform="translate(372.102 512.885)"><path d="M469.293,671.869a9.76,9.76,0,0,1,5.124-5.067c3.845-1.624-1.111,2.339-1.111,2.339a16.768,16.768,0,0,0,6-3.223c2.693-2.35,1.649,5.732-7.14,7.214Z" transform="translate(-396.679 -629.893)" fill="#e9c3bc"/><path d="M458.094,665.286l-11.909,16.253c-3.026-7.522-2.574-17-11.766-27.152a7.28,7.28,0,0,0-4.724-2.328h0s-7.558,18.708-6.6,30.215c.618,7.434,1.847,38.462,1.847,38.462s12.27,1.849,12.771-13.7l-1.682-17.351a48.566,48.566,0,0,0,3.039,5.061c8.935,12.975,22.773-23.81,22.773-23.81Z" transform="translate(-385.393 -626.617)" fill="#c96858"/><path d="M427.285,652.059l-12.707.014-1.451,4.842,14.825-.236Z" transform="translate(-382.983 -626.617)" fill="#c96858"/><path d="M378.69,740.84a9.757,9.757,0,0,1,3.691,6.19c.656,4.122-2-1.639-2-1.639a16.765,16.765,0,0,0,1.69,6.6c1.636,3.177-5.961.227-5.294-8.661Z" transform="translate(-374.108 -648.266)" fill="#e9c3bc"/><g transform="translate(16.27 115.098)"><path d="M431.338,772.968s-2.862,34.428-2.056,51.343c.2,4.2,11.352,4,11.788,5.507s-7.033.138-12.211.458-3.891-3.617-4.355-8.064c-1.408-13.492-1.9-15.751-3.124-31.4s-1.9-20.182-1.9-20.182Z" transform="translate(-400.802 -770.628)" fill="#e9c3bc"/><path d="M407.441,773.854s-8.12,34.626-7.314,51.54c.2,4.2,11.353,4,11.788,5.507s-7.033.137-12.21.457-3.892-3.616-4.356-8.064c-1.407-13.491.233-51.78.233-51.78Z" transform="translate(-394.779 -770.844)" fill="#e9c3bc"/></g><g transform="translate(14.741 83.149)"><path d="M430.169,809.772l.977-76.112-20.328-5.284,8.378,81.807Z" transform="translate(-397.161 -728.376)" fill="#2a4b6d"/><path d="M404.574,810.567l11.1-82.19L395.3,729.662l-2.548,81.348Z" transform="translate(-392.756 -728.376)" fill="#2a4b6d"/></g><path d="M425.528,653.026s-8.015.008-14.533.042l-5.417,63.625,24.272-.032Z" transform="translate(-381.142 -626.853)" fill="#e2eeef"/><g transform="translate(0 25.442)"><path d="M392.236,722.6s14.152-3.756,14.653-19.309,2.132-51.214,2.132-51.214a19.792,19.792,0,0,0-5.53.551c-1.9.571-14.058,20-13.1,31.51C391.007,691.568,392.236,722.6,392.236,722.6Z" transform="translate(-377.426 -652.06)" fill="#c96858"/><path d="M399.82,652.632s-19.255.532-25.676,35.773c-2.3,12.652.634,33.993.634,33.993l5.494-.636s5.45-28.231,8.507-36.332S400.065,668.341,399.82,652.632Z" transform="translate(-373.262 -652.199)" fill="#c96858"/></g><path d="M419.915,619.134c2.659-.175,6.981.6,7.472,6.492s3.652,4.8.971,7.084c-1.456,1.242.732,6.34-2.437,6.653s-9.791-1.8-9.886-3.228S405.521,620.085,419.915,619.134Z" transform="translate(-382.782 -618.583)" fill="#e9c3bc"/><path d="M416.718,640.724l.164,9.3,8.6,0-.986-5.544Z" transform="translate(-383.859 -623.853)" fill="#e9c3bc"/><path d="M427.76,620.621a3.284,3.284,0,0,1-3.084,2.246c-2.541.168-1.217,4.164-5.489,4.447s-1.576,5.955-3.374,8.173c0,0-9.341-14.87,1.354-16.542C428.936,617.106,427.76,620.621,427.76,620.621Z" transform="translate(-382.717 -618.412)" fill="#2a4b6d"/><path d="M431.183,635.77c-.871-.474-1.543.222-3.315.663-2.744.682-3.825-3.858-5.555-3.791s-2.079,11.009,4.956,12.106c7.127,1.112,3.969-6.02,3.914-6.652S432.782,636.641,431.183,635.77Z" transform="translate(-384.967 -621.882)" fill="#2a4b6d"/><g transform="translate(16.27 170.226)"><path d="M401.548,845.032H395.8a1.03,1.03,0,0,0-1.022,1.038v2.64a1.1,1.1,0,0,0,1.087,1.1h16.248s.309-1.131-.418-1.55c-.92-.53-8.723-2.82-9.839-3.183A.977.977,0,0,0,401.548,845.032Z" transform="translate(-394.779 -843.9)" fill="#2a4b6d"/><path d="M432.383,843.535h-5.746a1.031,1.031,0,0,0-1.023,1.038v2.64a1.1,1.1,0,0,0,1.088,1.1h16.247s.309-1.132-.418-1.551c-.92-.529-8.722-2.82-9.838-3.183A.984.984,0,0,0,432.383,843.535Z" transform="translate(-402.298 -843.535)" fill="#2a4b6d"/></g></g><g transform="translate(498.38 514.086)"><g transform="translate(19.137 3.482)"><g transform="translate(2.454 3.218)"><path d="M590.6,652.568c-3.744.9-1.763-1.42-5.073.613-6.021-.346-5.424-2.473-5.239-4.216.426-3.823-.643-9.62-1.918-8.386-.385.364-2.011-.3-2.419-.253-1.614-5.941,1.062-8.936,1.066-11.465a40.4,40.4,0,0,0,8.363,1.874c.352.468,3.115-.237,3.136-.033.085.592-1.5,6.511-.9,8.273C587.578,638.669,585.24,647.886,590.6,652.568Z" transform="translate(-575.43 -628.861)" fill="#9d8682"/></g><path d="M574.133,630.749c.473-.762,2.59-6.113,3.741-6.144,3.834.534,2.809,1.418,2.622,4.687-.1,1.714-1.633,10.332-1.737,10.355-.222-.016-5.389.827-6.267-.419-.115-.166.808-2.321.42-2.641a.582.582,0,0,1-.11-.9c.2-.325.249-.227-.033-.5s-.153-.631.264-.7c.639-.1-.271-.9-.747-1.6C571.816,632.2,573.085,632.467,574.133,630.749Z" transform="translate(-572.184 -624.605)" fill="#9d8682"/><path d="M573.147,638.726c-.043-.086.572-.178,1.158.011,0,0-1.208.306-1.142.168C573.2,638.812,573.234,638.818,573.147,638.726Z" transform="translate(-572.419 -628.024)" fill="#fff"/></g><path d="M547.057,644.088c.1,0-.4-.773.239-1.407.24-.236-.124-1.049.507-.846.559.178,2.365,2.757,2.365,2.757.066-.073.891-2.977,1.466-3.053.207-.03.391.113.332.462a12.319,12.319,0,0,0-.181,2.11,16.66,16.66,0,0,1-.168,3.863,1.539,1.539,0,0,1-.742,1.231.781.781,0,0,0,.014.2c.361,3.149,1.887,10.435,1.887,10.435l-4.613-1.651-.917-10.309c-.186-.754-.284-1.388-.319-1.444l.045-1.024C546.771,644.557,546.927,644.1,547.057,644.088Z" transform="translate(-546.876 -625.251)" fill="#9d8682"/><path d="M556.916,839.01c-.537,3.535,1.238,5.462-.077,6.918-.615.68-3.389,1.571-4.476.4-1.248-1.336.045-5.052.051-8.045Z" transform="translate(-548.082 -673.228)" fill="#9d8682"/><g transform="translate(3.012 169.001)"><path d="M554.476,845.459c3.309-.057,2.352-2.286,2.782-1.246.485,2.644-1.906,6.8-3.336,6.45-2.012-.5-4.24-2.946-2.343-7.161C551.579,843.5,551.14,845.254,554.476,845.459Z" transform="translate(-550.859 -843.502)" fill="#2a4b6d"/></g><path d="M605.245,836.913c.75,3.493-.91,5.527.493,6.9.65.644,3.479,1.364,4.493.131,1.164-1.41-.343-5.043-.532-8.029Z" transform="translate(-561.087 -672.651)" fill="#9d8682"/><g transform="translate(43.79 167.174)"><path d="M607.664,843.207c-3.3.141-2.478-2.144-2.848-1.083-.322,2.671,2.309,6.683,3.711,6.247,1.98-.616,4.061-3.2,1.916-7.286C610.443,841.086,610.991,842.8,607.664,843.207Z" transform="translate(-604.788 -841.086)" fill="#2a4b6d"/></g><path d="M591.519,725.446l-25.68-1.608-8.317,41.124L552.086,812l5.341.661,12.163-46.676,7.925-26.3,14.269,71.334,6.323-.186Z" transform="translate(-548.147 -645.321)" fill="#c96858"/><path d="M617.292,680.489l-.532-3.394-29.689-22.508a29.248,29.248,0,0,0-18.711.5c-.083.035-8.7,13.22-11.624,19.971-.824-3.907-3.318-11.45-4.411-16.775l-4.229.828c.2,9.948-.144,29.7,7.145,28.286,1.512-.292,4.374-2.485,7.289-7.81l-5.3,49.006,43.241,1.986-2.268-31.861Zm-20.23,13.177-1.239-20.472,9.108,7.988s-4.979,5.981-6.743,10.168C598.177,691.39,597.076,693.628,597.062,693.666Z" transform="translate(-547.173 -628.119)" fill="#6fabae"/><path d="M564.076,715.324a14.976,14.976,0,0,0,8.316,6.217,31.827,31.827,0,0,0,10.507,1.551,38.416,38.416,0,0,0,10.544-1.555,25.3,25.3,0,0,0,4.926-2.018,11.8,11.8,0,0,0,4.012-3.379l.266.184a12.16,12.16,0,0,1-4.12,3.483,25.477,25.477,0,0,1-4.99,2.059,38.807,38.807,0,0,1-10.631,1.586,32.076,32.076,0,0,1-10.638-1.55,19.16,19.16,0,0,1-4.836-2.417,13.008,13.008,0,0,1-3.7-3.945Z" transform="translate(-550.987 -643.245)" fill="#8cbcbe"/><path d="M586.179,638.008c-2.061,1.862-2.385,7.959,3.393,10.319,2.4.982,7.629,1.971,10.256-1.521,5.343-7.117-3.592-11.339-3.592-11.339s2.164-17.592-17.193-15.254c-2.3.277-1.417,5.75-.523,7.363C580.042,630.312,588.561,635.869,586.179,638.008Z" transform="translate(-554.363 -620)" fill="#2a4b6d"/></g><g transform="translate(438.408 507.281)"><g transform="translate(0 0)"><rect width="25.097" height="17.101" transform="translate(25.097 17.101) rotate(-180)" fill="#6fabae"/><path d="M467.564,637.836l4.664-4.22h-4.664Z" transform="translate(-467.564 -616.515)" fill="#6fabae"/></g><circle cx="1.631" cy="1.631" r="1.631" transform="translate(6.75 6.911)" fill="#fff"/><circle cx="1.631" cy="1.631" r="1.631" transform="translate(11.236 6.911)" fill="#fff"/><circle cx="1.631" cy="1.631" r="1.631" transform="translate(15.925 6.911)" fill="#fff"/></g><g transform="translate(486.735 498.207)"><g transform="translate(0 0)"><rect width="25.746" height="17.544" fill="#c96858"/><path d="M563.982,626.531,559.2,622.2h4.785Z" transform="translate(-538.235 -604.658)" fill="#c96858"/></g><circle cx="1.536" cy="1.536" r="1.536" transform="translate(6.807 7.071)" fill="#fff"/><circle cx="1.536" cy="1.536" r="1.536" transform="translate(11.031 7.071)" fill="#fff"/><circle cx="1.536" cy="1.536" r="1.536" transform="translate(15.447 7.071)" fill="#fff"/></g></g></svg>