<svg xmlns="http://www.w3.org/2000/svg" width="253.5" height="477.915" viewBox="0 0 253.5 477.915"><g transform="translate(-373.262 -611)"><g transform="translate(373.262 625.739)"><path d="M469.293,682.26a25.663,25.663,0,0,1,13.475-13.324c10.111-4.271-2.921,6.15-2.921,6.15a44.1,44.1,0,0,0,15.79-8.474c7.081-6.18,4.337,15.074-18.776,18.971Z" transform="translate(-278.349 -571.88)" fill="#e9c3bc"/><path d="M515.266,686.841l-31.315,42.738c-7.957-19.78-6.768-44.7-30.941-71.4a19.142,19.142,0,0,0-12.421-6.122h0s-19.874,49.194-17.358,79.453c1.624,19.548,4.858,101.14,4.858,101.14s32.265,4.862,33.581-36.035l-4.422-45.625a127.694,127.694,0,0,0,7.991,13.308c23.495,34.118,59.884-62.612,59.884-62.612Z" transform="translate(-324.093 -585.157)" fill="#c96858"/><path d="M450.357,652.059l-33.414.037-3.817,12.732,38.983-.619Z" transform="translate(-333.862 -585.157)" fill="#c96858"/><path d="M381.88,740.84a25.656,25.656,0,0,1,9.707,16.277c1.724,10.839-5.269-4.311-5.269-4.311a44.087,44.087,0,0,0,4.444,17.362c4.3,8.353-15.676.6-13.921-22.775Z" transform="translate(-369.833 -497.409)" fill="#e9c3bc"/><g transform="translate(42.783 302.66)"><path d="M450.664,776.782s-7.526,90.532-5.406,135.01c.525,11.044,29.851,10.531,31,14.481s-18.494.362-32.11,1.205-10.232-9.51-11.453-21.206c-3.7-35.478-5.007-41.42-8.214-82.575s-5-53.069-5-53.069Z" transform="translate(-370.366 -770.628)" fill="#e9c3bc"/><path d="M428.076,777.668S406.723,868.719,408.843,913.2c.527,11.043,29.853,10.53,31,14.481s-18.494.36-32.108,1.2-10.234-9.508-11.455-21.206c-3.7-35.476.612-136.161.612-136.161Z" transform="translate(-394.779 -769.752)" fill="#e9c3bc"/></g><g transform="translate(38.762 218.648)"><path d="M461.7,942.415l2.568-200.144-53.455-13.894,22.03,215.12Z" transform="translate(-374.906 -728.376)" fill="#2a4b6d"/><path d="M423.832,944.5l29.192-216.127-53.568,3.38-6.7,213.912Z" transform="translate(-392.756 -728.376)" fill="#2a4b6d"/></g><path d="M458.039,653.026s-21.077.022-38.216.111L405.578,820.444l63.827-.083Z" transform="translate(-341.322 -584.202)" fill="#e2eeef"/><g transform="translate(0 66.903)"><path d="M395.334,837.543s37.214-9.878,38.531-50.775S439.469,652.1,439.469,652.1s-8.381-.4-14.543,1.45c-4.995,1.5-36.968,52.6-34.45,82.857C392.1,755.951,395.334,837.543,395.334,837.543Z" transform="translate(-356.388 -652.059)" fill="#c96858"/><path d="M443.1,652.632s-50.634,1.4-67.517,94.069c-6.061,33.269,1.668,89.387,1.668,89.387l14.447-1.672s14.33-74.236,22.369-95.537S443.741,693.94,443.1,652.632Z" transform="translate(-373.262 -651.494)" fill="#c96858"/></g><path d="M432.321,619.169c6.991-.459,18.357,1.587,19.649,17.072s9.6,12.614,2.553,18.629c-3.828,3.267,1.925,16.672-6.409,17.494s-25.747-4.746-26-8.488S394.47,621.668,432.321,619.169Z" transform="translate(-334.677 -617.72)" fill="#e9c3bc"/><path d="M416.718,640.724l.431,24.459,22.626-.008L437.181,650.6Z" transform="translate(-330.312 -596.36)" fill="#e9c3bc"/><path d="M453.385,624.22s-1.428,5.464-8.111,5.905-3.2,10.95-14.434,11.694-4.144,15.658-8.872,21.492c0,0-24.562-39.1,3.561-43.5C456.477,614.976,453.385,624.22,453.385,624.22Z" transform="translate(-334.94 -618.412)" fill="#2a4b6d"/><path d="M447.35,640.869c-2.291-1.247-4.056.585-8.717,1.744-7.216,1.793-10.057-10.145-14.607-9.97s-5.466,28.949,13.032,31.834c18.74,2.925,10.437-15.829,10.292-17.492S451.555,643.159,447.35,640.869Z" transform="translate(-325.821 -604.349)" fill="#2a4b6d"/><g transform="translate(42.783 447.626)"><path d="M412.579,845.032H397.467a2.708,2.708,0,0,0-2.688,2.73V854.7a2.882,2.882,0,0,0,2.859,2.9h42.726s.813-2.975-1.1-4.076c-2.42-1.394-22.938-7.415-25.873-8.371A2.565,2.565,0,0,0,412.579,845.032Z" transform="translate(-394.779 -842.055)" fill="#2a4b6d"/><path d="M443.414,843.535H428.3a2.711,2.711,0,0,0-2.69,2.73v6.943a2.882,2.882,0,0,0,2.861,2.9H471.2s.813-2.977-1.1-4.078c-2.42-1.392-22.936-7.415-25.871-8.369A2.592,2.592,0,0,0,443.414,843.535Z" transform="translate(-364.303 -843.535)" fill="#2a4b6d"/></g></g><g transform="translate(560.768 611)"><g transform="translate(0 0)"><rect width="65.994" height="44.969" transform="translate(65.994 44.969) rotate(-180)" fill="#6fabae"/><path d="M467.564,644.713l12.264-11.1H467.564Z" transform="translate(-467.564 -589.647)" fill="#6fabae"/></g><circle cx="4.29" cy="4.29" r="4.29" transform="translate(17.749 18.174)" fill="#fff"/><circle cx="4.29" cy="4.29" r="4.29" transform="translate(29.545 18.174)" fill="#fff"/><circle cx="4.29" cy="4.29" r="4.29" transform="translate(41.877 18.174)" fill="#fff"/></g></g></svg>