<svg xmlns="http://www.w3.org/2000/svg" xmlns:xlink="http://www.w3.org/1999/xlink" width="316.472" height="449.667" viewBox="0 0 316.472 449.667"><defs><clipPath id="a"><path d="M831.285,289.67s25.641-68.928,76.887-76.126c37.646,49.555-11.241,99.941-11.241,99.941L837.854,338.9Z" transform="translate(-831.285 -213.544)" fill="#2a4b6d"/></clipPath><clipPath id="b"><path d="M842.206,388.707s50.761-34.515,84.709-11.125C922.822,461.667,815.577,462.4,815.577,462.4Z" transform="translate(-815.577 -369.452)" fill="#ffd131"/></clipPath><clipPath id="c"><path d="M776.236,287.9s-9.887-73.082,37.031-99.879c72.088,58.707,14.16,129.447,14.16,129.447Z" transform="translate(-775.367 -188.022)" fill="#d48679"/></clipPath></defs><g transform="translate(-448.811 -188.022)"><g transform="translate(631.455 188.022)"><g transform="translate(31.275 14.275)"><path d="M831.285,289.67s25.641-68.928,76.887-76.126c37.646,49.555-11.241,99.941-11.241,99.941L837.854,338.9Z" transform="translate(-831.285 -213.544)" fill="#2a4b6d"/><g clip-path="url(#a)"><path d="M917.9,289.494l-53.323,9.638,29.291-52.218,31.03-6.637-.338-1.583-29.637,6.339,18.14-32.339-1.785-.127-33.232,59.245-15.491-29.775-.849,1.878L877.094,273.5l-36.97,65.909,1.412.793,22.011-39.239,53.054-9.59Z" transform="translate(-835.18 -213.113)" fill="#fff"/></g></g><path d="M842.206,388.707s50.761-34.515,84.709-11.125C922.822,461.667,815.577,462.4,815.577,462.4Z" transform="translate(-793.087 -267.978)" fill="#efd36a"/><g transform="translate(22.49 101.474)"><path d="M842.206,388.707s50.761-34.515,84.709-11.125C922.822,461.667,815.577,462.4,815.577,462.4Z" transform="translate(-815.577 -369.452)" fill="#ffd131"/><g clip-path="url(#b)"><path d="M901.728,436.547l-42.985-17,72.6-41.578-.806-1.406L886.475,401.8l9.168-33.059-1.88.719-9.286,33.485-59.77,34.231.806,1.406,31.432-18,42.821,16.932Z" transform="translate(-819.601 -369.138)" fill="#fff"/></g></g><path d="M776.236,287.9s-9.887-73.082,37.031-99.879c72.088,58.707,14.16,129.447,14.16,129.447Z" transform="translate(-775.367 -188.022)" fill="#d48679"/><g clip-path="url(#c)"><path d="M853.776,245.589l-.353-1.718-45.4,30.981,10.292-86.809-1.606-.19-7.3,61.579L785,228.583l.033,2.157,24.146,20.625h0l-5.926,49.983,1.466,1.377,3.052-25.742Z" transform="translate(-779.612 -187.947)" fill="#fff"/></g></g><g transform="translate(448.811 433.751)"><path d="M676.446,885.55s102.731-66.022,105.827-82.559-67.087-30.964-67.087-30.964L615.028,835.538Z" transform="translate(-522.062 -691.12)" fill="#c96858"/><path d="M603.194,835.346V880.8S450.413,818.6,449.179,801.029c-.828-11.793,0-39.79,0-39.79Z" transform="translate(-448.811 -686.366)" fill="#d48679"/><path d="M824.723,761.262v37.012l-89.77,71.154-.028-38.422Z" transform="translate(-574.901 -686.376)" fill="#fff"/><path d="M449.469,702.243c0,11.333,154.015,74.107,154.015,74.107S707.115,707.5,712.145,692.532c6.377-21.176-105.651-55.585-135.478-64.339a20.268,20.268,0,0,0-14.105,1C539.9,639.469,449.469,690.91,449.469,702.243Z" transform="translate(-449.101 -627.37)" fill="#c96858"/><path d="M480.906,816.123h0c-.15-5.234,3.6-11.748,8.271-9.564l75.765,37.61a13.219,13.219,0,0,1,7.558,11.62l.04,1.4c.208,7.253.254,16.412-6.165,13.258L491.727,831.69C485.263,828.514,481.115,823.427,480.906,816.123Z" transform="translate(-462.953 -706.147)" fill="#fff"/><g transform="translate(121.312 151.814)"><circle cx="7.559" cy="7.559" r="7.559" fill="#fff"/><circle cx="6.614" cy="6.614" r="6.614" transform="translate(0.945 0.945)" fill="#efd36a"/></g><g transform="translate(160.052 89.608)"><g transform="translate(50.682 0.597)"><path d="M864.673,788.65c-13.4,9.683-26.261,19.734-39.082,29.754l39.082-29.747Z" transform="translate(-825.591 -788.65)" fill="#66c2ab"/></g><g transform="translate(12.325 30.351)"><path d="M795.368,841.849l-38.356,29.2C770.087,861.6,782.71,851.742,795.368,841.849Z" transform="translate(-757.012 -841.849)" fill="#66c2ab"/></g><path d="M734.975,855.9v1.216L824.738,788.8V787.59l0-.007" transform="translate(-734.975 -787.583)" fill="#d48679"/><path d="M834.371,789.751c-25.9,19.712-52.157,39.408-77.538,59.018l77.538-59.017Z" transform="translate(-744.608 -788.538)" fill="#d48679"/></g><g transform="translate(160.052 84.399)"><g transform="translate(33.437 0.593)"><path d="M851.085,779.33c-19.4,13.685-37.666,28.385-56.327,42.885l56.327-42.873Z" transform="translate(-794.758 -779.33)" fill="#66c2ab"/></g><g transform="translate(12.325 43.477)"><path d="M778.123,856l-21.112,16.069C764.159,866.789,771.167,861.41,778.123,856Z" transform="translate(-757.011 -856.005)" fill="#66c2ab"/></g><path d="M824.738,778.277l-.005-.007-89.758,68.32v1.216l89.763-68.322Z" transform="translate(-734.975 -778.27)" fill="#d48679"/></g><g transform="translate(160.052 97.54)"><g transform="translate(12.339 0.604)"><path d="M834.461,802.846c-25.909,19.713-51.694,39.07-77.425,58.936l77.425-58.932Z" transform="translate(-757.036 -802.846)" fill="#66c2ab"/></g><path d="M824.738,801.766l-89.763,68.323v.811l.194.257,89.57-68.175Z" transform="translate(-734.975 -801.766)" fill="#d48679"/><path d="M756.891,862.934c25.721-19.53,51.421-38.817,77.506-58.969v-.023" transform="translate(-744.633 -802.725)" fill="#d48679"/></g><g transform="translate(160.052 105.402)"><g transform="translate(32.565 0.583)"><path d="M850.4,816.865c-19.289,13.977-38.126,28.853-57.2,43.561l57.2-43.537Z" transform="translate(-793.199 -816.865)" fill="#66c2ab"/></g><g transform="translate(12.325 44.145)"><path d="M777.251,894.75l-20.24,15.406Q767.206,902.532,777.251,894.75Z" transform="translate(-757.011 -894.75)" fill="#66c2ab"/></g><path d="M824.738,815.822l-89.763,68.323v1.216l89.763-68.322Z" transform="translate(-734.975 -815.822)" fill="#d48679"/><line y1="29.696" x2="39.015" transform="translate(12.231 30.534)" fill="#d48679"/></g></g><g transform="translate(524.222 263.236)"><path d="M583.642,364.717s111.671-46.447,118.746-41.9,0,58.579,0,58.579l-117.542,9.957Z" transform="translate(-583.642 -322.5)" fill="#8cbcbe"/><path d="M583.642,607.946V397.982l35.3,5.374V617.574Z" transform="translate(-583.642 -355.765)" fill="#2a4b6d"/><path d="M646.761,376.445s109.5-47.83,121.955-38.261c10.67,8.2,12.846,142.683,0,203.536-22.58,3.384-121.955,48.942-121.955,48.942Z" transform="translate(-611.458 -328.854)" fill="#2a4b6d"/><circle cx="9.628" cy="9.628" r="9.628" transform="translate(6.82 91.127)" fill="#fff"/><path d="M597.987,496.006a8.424,8.424,0,1,0,8.425-8.425A8.425,8.425,0,0,0,597.987,496.006Z" transform="translate(-589.964 -395.251)" fill="#a3c9cb"/><circle cx="9.628" cy="9.628" r="9.628" transform="translate(6.82 159.533)" fill="#fff"/><path d="M597.987,618.313a8.424,8.424,0,1,0,8.425-8.425A8.425,8.425,0,0,0,597.987,618.313Z" transform="translate(-589.964 -449.151)" fill="#a3c9cb"/><path d="M704.692,430.551c-6.988,3.745-9.828,10.518-10.917,18.276-2.54,18.109-3.714,51,5.68,60.041,9.617,9.255,35.194-5.466,50.344-14.072a23.224,23.224,0,0,0,11.369-15.861c3.88-20.413,10.435-64.1-4.053-66.214C744.1,410.823,719.071,422.846,704.692,430.551Z" transform="translate(-631.383 -362.172)" fill="#d1e4e5"/></g><g transform="translate(460.595 396.63)"><g transform="translate(86.784 131.403)"><path d="M628.056,806.9l19.429-2.975c2.62-.122,5.615.173,6.439,2.337a13.174,13.174,0,0,1,.73,2.919c-.565.911-26.47,3.911-26.47,3.911l-.126-.076C624.829,810.147,628.056,806.9,628.056,806.9Z" transform="translate(-625.739 -799.449)" fill="#2a4b6d"/><path d="M655.884,813.34l-26.47,3.912.385.995,26.263-3.99Z" transform="translate(-626.97 -803.608)" fill="#fff"/><path d="M625.044,797.122l2.317,6.27h0a6.372,6.372,0,0,0,5.228-.668l.276-.174-.046-6.609Z" transform="translate(-625.044 -795.941)" fill="#9d8682"/></g><g transform="translate(144.085 104.074)"><path d="M739.446,771.69l3.653-19.313c.756-2.512,2.03-5.239,4.344-5.3a13.154,13.154,0,0,1,3,.281c.672.836-5.11,26.265-5.11,26.265l-.113.095C741.434,775.812,739.446,771.69,739.446,771.69Z" transform="translate(-732.762 -747.078)" fill="#2a4b6d"/><path d="M755.072,747.586l-5.111,26.265,1.066-.033,4.968-26.1Z" transform="translate(-737.396 -747.302)" fill="#fff"/><path d="M727.5,785.175l6.684-.1h0a6.376,6.376,0,0,0,1.108-5.153l-.073-.318-6.248-2.153Z" transform="translate(-727.496 -760.463)" fill="#9d8682"/></g><path d="M526.01,756.269s21.138,7.189,52.124,5.234a38.392,38.392,0,0,1,15.076,2.089c18.765,6.557,46.589,3.053,46.589,3.053l1.991-8.719L549.024,733.7Z" transform="translate(-494.616 -637.109)" fill="#6fabae"/><g transform="translate(12.884)"><path d="M503.087,603.2l-3.794,9.013,7.7,2.3,2.969-7.3Z" transform="translate(-495.726 -579.599)" fill="#907a76"/><path d="M506.092,574.846l-2.3,12.187a1.914,1.914,0,0,1,1.1,2.769,2.316,2.316,0,0,1-.014.936,14.211,14.211,0,0,0,10.121,5.1c7.972.389,6.944-15.452,6.944-15.452Z" transform="translate(-497.707 -567.102)" fill="#9d8682"/><path d="M495.279,576.858a7.583,7.583,0,0,0-1.121-3.8c-3.409-4.777,1.109-6.563,2.691-7.11,1.749-.606,2.117-3.423,4.449-4.482,3.561-1.617,5.856,1.51,7.859,1.619s3.81-2.151,6.269-.125,1.622,4.139,2.291,5.279,2.929-1.013,4.94,2.559c3.06,5.435-5.508,5.366-5.508,5.366a15.138,15.138,0,0,1-10.2-2.968,1.983,1.983,0,0,0-2.409.006c-1.866,1.577-4.317,11.616-4.317,11.616l-1.565-2.1S494.56,580.964,495.279,576.858Z" transform="translate(-492.916 -561)" fill="#2a4b6d"/><path d="M504.869,591.371a1.9,1.9,0,1,0,1.6-2.166A1.9,1.9,0,0,0,504.869,591.371Z" transform="translate(-498.174 -573.42)" fill="#9d8682"/></g><path d="M470.766,711.166s2.2,24.875,24.734,26.747,50.105-22.866,50.105-22.866l11.013,37.63,8.735-1.327s4.023-55.575-7.975-59.026-57.784,14.461-57.784,14.461Z" transform="translate(-470.27 -618.68)" fill="#8cbcbe"/><path d="M470.376,678.406l37.042-5.628a78.473,78.473,0,0,1-2.97-16.552A30.784,30.784,0,0,1,506.5,644.1c-2.024-14.152-7.176-27.933-19.693-26.444C465.427,622.892,470.376,678.406,470.376,678.406Z" transform="translate(-469.88 -585.92)" fill="#c96858"/><path d="M619.8,632.4l-12.882,32.758-32.677-3.876-.308,2.6,34.684,4.114,13.619-34.638Z" transform="translate(-515.736 -592.464)" fill="#fff"/><path d="M509.112,666.707l14.632-2.223,1.548,16.369,25.779-8.109,5.722-3.8a7.2,7.2,0,0,1,5.021-1.13l7.1,1.029a1.678,1.678,0,0,1,1.419,1.409l2.583,7.561s-1.686,1.25-4.418-5.118c-1.283,7.529-11.971,2.533-11.971,2.533l-3.587,2.531s-27.6,20.412-34.551,16.668S509.112,666.707,509.112,666.707Z" transform="translate(-487.169 -606.605)" fill="#9d8682"/><path d="M602.727,672.811a1.678,1.678,0,0,0-1.419-1.409l-7.1-1.029a7.208,7.208,0,0,0-5.021,1.13l-5.722,3.8-.842.265.917,6.038c1.132-.8,1.79-1.291,1.79-1.291l3.587-2.531s10.688,5,11.971-2.534c2.733,6.367,4.419,5.118,4.419,5.118Z" transform="translate(-519.567 -609.167)" fill="#9d8682"/></g><g transform="translate(573.881 521.783)"><path d="M758.555,851.832l5.892,0a13.93,13.93,0,0,1,12.726,8.284l5.6,12.637-11.661,5.582,3.737,2.521,2.071,19.179-42.769-.72-1.621-47.767,25.795.568Z" transform="translate(-698.917 -814.199)" fill="#556f8a"/><path d="M759.761,834.728a54.645,54.645,0,0,0,1.343,8.194c.632,1.733,3.338,1.5,3.338,1.5s-2.082,9.129-9.724,9.129-8.824-7.834-8.824-7.834l5.426-.835-2.507-8.339Z" transform="translate(-704.805 -806.785)" fill="#dfa49b"/><g transform="translate(38.478 4.865)"><path d="M760.8,803.772l-1.748-10.307-17.828,7.952,1.081,6.033s1.378,14.695,10.868,12.946C763.44,818.5,761.26,803.641,760.8,803.772Z" transform="translate(-741.226 -793.465)" fill="#e9c3bc"/></g><path d="M809.062,889.465,811.47,898a17.269,17.269,0,0,1-4.855,17.327l-10.923,9.161-3.511-10.253,6.042-6.05a6.938,6.938,0,0,0,1.5-7.565l-2.317-5.576Z" transform="translate(-725.203 -830.907)" fill="#e9c3bc"/><path d="M716.283,893.424l-1.337,4.152a21.786,21.786,0,0,0,4.9,21.642l6.632,7.017L729.9,909.83l-9.454-16.406Z" transform="translate(-690.704 -832.652)" fill="#e9c3bc"/><path d="M715.773,895.787l5.952,3.448,1-9.871H717.4Z" transform="translate(-691.53 -830.862)" fill="#556f8a"/><path d="M730.489,804.253c11.456,2.414,17.911-10.342,17.911-10.342a18.389,18.389,0,0,0,.732,6.6c3.856-5,1.336-11.306,1.336-11.306s-3.118-6.886-17.018-3.512c-16.207,3.934-18.909,26.2-18.909,26.2s-1.185,4.849,2.988,12.621a6.361,6.361,0,0,1-.4,6.877,14.467,14.467,0,0,0-2.586,10.113,7.769,7.769,0,0,0,2.826,4.818,8.043,8.043,0,0,1,2.329,8.378c-1.995,5.943-.293,9.326-.293,9.326s1.085,3.818,7.023,4.052c8.658.341,8.475-6.537,7.694-10.41a4.737,4.737,0,0,1,1.092-4.116,8.591,8.591,0,0,0,2.288-5.52,13.363,13.363,0,0,0-1.678-6.133,6.908,6.908,0,0,1,.574-7.251c2.212-3,5.066-8.976,3.468-12.851C737.163,815.256,732.549,813.07,730.489,804.253Z" transform="translate(-690.919 -784.767)" fill="#2a4b6d"/><g transform="translate(33.616 68.365)"><rect width="43.33" height="27.785" fill="#fff"/><rect width="43.33" height="2.161" transform="translate(0 26.704)" fill="#dde2e8"/><path d="M768.169,927.863a1.733,1.733,0,1,0,1.733-1.733A1.733,1.733,0,0,0,768.169,927.863Z" transform="translate(-748.237 -915.43)" fill="#aab7c5"/></g><path d="M810.123,940.434c5.583,16.779-68.464,24.281-68.464,24.281l-1.768-9.483S804.541,923.655,810.123,940.434Z" transform="translate(-702.159 -851.204)" fill="#a9cdce"/><g transform="translate(0 105.78)"><path d="M725.1,982.125l-10.621.635-2.011-2.21,1.02-4,10.039-1.447Z" transform="translate(-690.075 -974.426)" fill="#e9c3bc"/><path d="M701.308,975.873l-10.805-1.3a22.194,22.194,0,0,0-7.922-.489v9.806a26.153,26.153,0,0,0,5.581-.036l13.146-1.621-.149-.225A5.466,5.466,0,0,1,701.308,975.873Z" transform="translate(-676.903 -973.895)" fill="#2a4b6d"/><path d="M672.613,978.536c.725-2.771,3.041-3.931,5.549-4.329v9.822C674.907,983.663,671.607,982.382,672.613,978.536Z" transform="translate(-672.429 -974.033)" fill="#aab7c5"/></g><path d="M735.918,968.188l1.981,12.246-4.682.9-2.341-11.705Z" transform="translate(-698.186 -865.6)" fill="#8cbcbe"/><path d="M776.017,811.322c-.478,1.243-.193,2.51.636,2.829s1.89-.43,2.369-1.673.193-2.51-.637-2.83S776.5,810.078,776.017,811.322Z" transform="translate(-717.978 -795.7)" fill="#e9c3bc"/><path d="M672.73,940.434c-5.583,16.779,68.464,24.281,68.464,24.281l1.768-9.483S678.313,923.655,672.73,940.434Z" transform="translate(-672.429 -851.204)" fill="#6fabae"/><g transform="translate(73.239 105.78)"><path d="M803.376,982.125l10.621.635,2.01-2.21-1.02-4L804.948,975.1Z" transform="translate(-803.376 -974.426)" fill="#e9c3bc"/><g transform="translate(10.621)"><path d="M841.127,974.086a22.153,22.153,0,0,0-7.957.483l-10.805,1.3a5.467,5.467,0,0,1,.149,6.13l-.149.225,13.146,1.621a26.1,26.1,0,0,0,5.616.032Z" transform="translate(-822.365 -973.896)" fill="#2a4b6d"/><path d="M861.3,978.536c-.725-2.771-3.041-3.931-5.549-4.329v9.822C859,983.663,862.3,982.382,861.3,978.536Z" transform="translate(-837.078 -974.033)" fill="#aab7c5"/></g></g><path d="M796.978,968.188,795,980.434l4.682.9,2.341-11.705Z" transform="translate(-726.444 -865.6)" fill="#8cbcbe"/></g></g></svg>