<svg xmlns="http://www.w3.org/2000/svg" xmlns:xlink="http://www.w3.org/1999/xlink" width="383.172" height="365.874" viewBox="0 0 383.172 365.874"><defs><clipPath id="a"><path d="M609.33,468.906s26.813-72.078,80.4-79.6c39.366,51.819-11.755,104.508-11.755,104.508L616.2,520.388Z" transform="translate(-609.33 -389.301)" fill="#2a4b6d"/></clipPath><clipPath id="b"><path d="M625.3,527.346s53.081-36.093,88.579-11.633c-4.28,87.926-116.426,88.69-116.426,88.69Z" transform="translate(-597.451 -507.211)" fill="#ffd131"/></clipPath><clipPath id="c"><path d="M567.951,474.443S557.611,398.021,606.673,370c75.382,61.389,14.807,135.362,14.807,135.362Z" transform="translate(-567.042 -370)" fill="#d48679"/></clipPath></defs><g transform="translate(-853.828 -355.677)"><g transform="translate(533.686 -14.323)"><g transform="translate(511.08 370)"><g transform="translate(32.703 14.926)"><path d="M609.33,468.906s26.813-72.078,80.4-79.6c39.366,51.819-11.755,104.508-11.755,104.508L616.2,520.388Z" transform="translate(-609.33 -389.301)" fill="#2a4b6d"/><g clip-path="url(#a)"><path d="M697.341,469l-55.759,10.079,30.629-54.6,32.448-6.94-.354-1.655-30.992,6.628L692.283,388.7l-1.867-.133-34.751,61.952-16.2-31.136-.888,1.963,16.1,30.939-38.66,68.92,1.477.829L640.509,481l55.478-10.028Z" transform="translate(-610.845 -389.134)" fill="#fff"/></g></g><g transform="translate(0)"><path d="M625.3,527.346s53.081-36.093,88.579-11.633c-4.28,87.926-116.426,88.69-116.426,88.69Z" transform="translate(-573.934 -401.1)" fill="#efd36a"/><g transform="translate(23.517 106.11)"><path d="M625.3,527.346s53.081-36.093,88.579-11.633c-4.28,87.926-116.426,88.69-116.426,88.69Z" transform="translate(-597.451 -507.211)" fill="#ffd131"/><g clip-path="url(#b)"><path d="M684.9,577.578,639.947,559.8l75.916-43.477-.843-1.47-46.074,26.387,9.587-34.57-1.966.752-9.71,35.015-62.5,35.795.842,1.47,32.868-18.824,44.778,17.706Z" transform="translate(-599.016 -507.089)" fill="#fff"/></g></g><path d="M567.951,474.443S557.611,398.021,606.673,370c75.382,61.389,14.807,135.362,14.807,135.362Z" transform="translate(-567.042 -370)" fill="#d48679"/><g clip-path="url(#c)"><path d="M646.244,430.247l-.369-1.8-47.474,32.4,10.763-90.776-1.68-.2-7.634,64.393-25.524-21.8.034,2.256,25.249,21.567h0l-6.2,52.267,1.533,1.44,3.191-26.918Z" transform="translate(-568.693 -369.971)" fill="#fff"/></g></g></g><g transform="translate(506.597 513.132)"><path d="M755.163,681.376c-.467-2.169-7.18-7.38-15.665-11.619a82.5,82.5,0,0,0,.955-24.075c7.923-2.457,16.022-5.876,17.165-9.821,2.318-8-7.726-28.321-10.692-30.237-1.9-1.226-10.606-.1-19.787,3.028a82.431,82.431,0,0,0-15.885-17.809c3.879-7.354,7.211-15.533,5.224-19.139-4.02-7.3-25.489-14.564-28.941-13.821-2.163.466-7.348,7.136-11.579,15.583a82.422,82.422,0,0,0-24.384-1.729c-2.435-7.641-5.75-15.208-9.552-16.31-8-2.319-28.322,7.726-30.238,10.691-1.14,1.766-.248,9.419,2.4,17.866a82.5,82.5,0,0,0-19.4,16.667c-6.722-3.351-13.675-5.874-16.922-4.086-7.3,4.02-14.563,25.489-13.82,28.941.418,1.944,5.852,6.331,13.083,10.272a82.445,82.445,0,0,0-1.76,26.535c-6.708,2.334-12.8,5.328-13.778,8.708-2.319,8,7.725,28.321,10.691,30.237,1.632,1.054,8.3.369,15.973-1.832a82.463,82.463,0,0,0,18.033,19.908c-3.079,6.375-5.251,12.771-3.559,15.844,4.02,7.3,25.489,14.564,28.941,13.821,1.95-.42,6.353-5.88,10.3-13.137a82.476,82.476,0,0,0,26.188.893c2.377,7.064,5.491,13.676,9.026,14.7,8,2.319,28.321-7.726,30.237-10.691,1.146-1.774.239-9.5-2.438-17.993a82.421,82.421,0,0,0,18.25-17.14c7.075,3.639,14.67,6.579,18.109,4.686C748.641,706.3,755.9,684.828,755.163,681.376Zm-113.192,6.54a37.1,37.1,0,1,1,49.461-17.49A37.1,37.1,0,0,1,641.97,687.916Z" transform="translate(-561.245 -555.083)" fill="#8cbcbe"/><g transform="translate(44.543 45.957)"><path d="M648.881,714.936a52.792,52.792,0,1,1,70.388-24.888A52.852,52.852,0,0,1,648.881,714.936Zm45.176-94.6a52.042,52.042,0,1,0,24.536,69.389A52.1,52.1,0,0,0,694.057,620.336Z" transform="translate(-618.842 -614.51)" fill="#fff"/></g><g transform="translate(20.615 22.979)"><path d="M738.806,703.7c-.3-.186-.591-.376-.878-.576a75.669,75.669,0,0,1-149.011-9.368l-.008,0c-.339-.079-.674-.171-1.007-.272a76.651,76.651,0,0,0,150.9,10.218Z" transform="translate(-587.902 -609.432)" fill="#fff"/><path d="M665.893,587.518a75.288,75.288,0,0,1,48.593,5.632c.308.147.6.311.906.462.032-.346.082-.691.131-1.036-.206-.1-.405-.213-.613-.312a76.263,76.263,0,0,0-49.027-5.75C665.894,586.847,665.9,587.183,665.893,587.518Z" transform="translate(-605.577 -584.797)" fill="#fff"/></g></g><g transform="translate(320.142 436.883)"><path d="M560.6,503.508c.07,7.429-3.833,23.251-24.326,33.653-25.384,12.885-1.77,48.62-24.733,63.01s-11.477,43.722-36.731,40.838c-27.288-3.116-24.125-41.139.2-56.745,18.981-12.18-3.529-31.532,24.2-59.273,9.211-9.213-.563-22.773,10.957-42.091C530.1,449.48,560.4,482.018,560.6,503.508Z" transform="translate(-350.83 -459.218)" fill="#2a4b6d"/><path d="M436.932,783.376l133.894.087-3.82-54.952,9.161,14.505,49.767-19.3-9.457-19.006c-18.818-38.347-53.591-64.044-96.285-65.361q-2.644-.082-5.379-.084c-22.581-.015-40.724,3.057-54.812,7.095a100.8,100.8,0,0,0-52.042,35.986L389.4,711.338l48.351-.822Z" transform="translate(-335.839 -497.915)" fill="#c96858"/><path d="M522.405,610.9l-2.629,19.728s-1.126,10.235,17.16,10.247c7.445,0,12.246-1.689,15.322-3.7A11.061,11.061,0,0,0,557,626.426l-5.641-42.477Z" transform="translate(-365.388 -485.377)" fill="#dfa49b"/><path d="M652.616,750.3s23.848,52.9,13.6,67.39-146.555-11.637-146.555-11.637l.015-22.575,103.059,6.89L608.4,767.154Z" transform="translate(-365.366 -523.083)" fill="#e9c3bc"/><path d="M508.694,595.21c-5.153.9-10.07,1.038-13.01-.667-19.617-20.493-15.866-87.4-15.866-87.4l55.572-1.432,10.466,42.162a36.449,36.449,0,0,1-7.348,32.084h0A58.479,58.479,0,0,1,508.694,595.21Z" transform="translate(-356.269 -467.643)" fill="#e9c3bc"/><path d="M560.761,537.338c-3.556-2.258-8.993-.572-12.144,3.767s-2.824,9.685.732,11.944,8.992.572,12.145-3.767S564.317,539.6,560.761,537.338Z" transform="translate(-371.437 -474.585)" fill="#fca372"/><path d="M467.143,777.543a6.413,6.413,0,1,0,6.417-6.409A6.413,6.413,0,0,0,467.143,777.543Z" transform="translate(-353.461 -527.804)" fill="#fff"/><path d="M479.884,494.07c-.6,7.574,4.26,23.448,34.661,32.746,37.654,11.515-1.568,65.758,32.312,78.962s15.495,27.492,54,22.95c41.613-4.909,39.355-43.452,3.5-57.809-27.985-11.2,17.6-46.107-22.63-72.613-13.359-8.8-7.757-9.487-23.943-28.44C529.78,437.078,481.624,472.159,479.884,494.07Z" transform="translate(-356.339 -456.486)" fill="#2a4b6d"/><ellipse cx="23.254" cy="25.52" rx="23.254" ry="25.52" transform="matrix(0.622, -0.783, 0.783, 0.622, 99.621, 46.106)" fill="#2a4b6d"/><g transform="translate(0 196.753)"><g transform="translate(130.05 87.945)"><rect width="123.58" height="11.71" fill="#8cbcbe"/></g><path d="M485.047,711.013l-164.905-.108,48.723,99.561,163.668.107Z" transform="translate(-320.142 -710.905)" fill="#6fabae"/><path d="M448.878,776.538a5.392,5.392,0,1,0,5.4-5.388A5.391,5.391,0,0,0,448.878,776.538Z" transform="translate(-349.321 -724.56)" fill="#fff"/></g></g></g><g transform="translate(177.856 55.274)"><g transform="translate(689.682 498.767)"><rect width="51.097" height="34.819" fill="#e5b2a7"/><path d="M772.97,599.852l-9.5-8.592h9.5Z" transform="translate(-721.873 -556.442)" fill="#e5b2a7"/></g><g transform="translate(697.704 459.049)"><path d="M728.45,520.63l-11.724-.125a20.981,20.981,0,0,0,.591-6.3,3.491,3.491,0,0,0-1.625-2.512c-11.454-7.244-8.594-15.436-8.594-15.436s1.3-10.413,16.079-11.266c15.752-.909,14.661,13.073,14.661,13.073s.636,7.792-7.588,12.992a4.721,4.721,0,0,0-2.112,3.385A16.86,16.86,0,0,0,728.45,520.63Z" transform="translate(-705.163 -470.347)" fill="#efd36a"/><path d="M724.386,547.969l-.045,4.2a2.63,2.63,0,0,0,2.254,2.885l7.14.076a2.63,2.63,0,0,0,2.314-2.837l.045-4.2Z" transform="translate(-712.823 -497.839)" fill="#6fabae"/><path d="M729.65,560.55l.787,1.927,4.44.047.991-1.909Z" transform="translate(-715.139 -503.327)" fill="#2a4b6d"/><path d="M728.374,514.062c.15,0,.317-.007.479-.012l-.176,16.635.8.008.177-16.7a13.575,13.575,0,0,0,1.769-.3c.007.313.012.62.007.908q-.052,2.751-.1,5.5-.1,5.3-.2,10.6l.8.008q.165-8.627.33-17.252a6.853,6.853,0,0,0,2.6-1.367c2.748-2.573-1.9-5.435-3.157-1.809a8.233,8.233,0,0,0-.289,2.752,17.476,17.476,0,0,1-1.843.406s.03-1.536.021-2.522a2.318,2.318,0,0,0-.539-1.533c-2.05-2.295-6.451-.695-4.7,2.643A4.5,4.5,0,0,0,728.374,514.062Zm3.922-2.447c-.007-.4.607-3.6,2.572-1.8a.864.864,0,0,1,.284.745c-.16,1.125-1.765,1.872-2.9,2.236A9.727,9.727,0,0,1,732.3,511.615Zm-6.922-2.487a2.5,2.5,0,0,1,3,.583,1.768,1.768,0,0,1,.51,1.271l-.027,2.557a3.943,3.943,0,0,1-3.826-1.63A2.034,2.034,0,0,1,725.374,509.128Z" transform="translate(-712.65 -480.541)" fill="#2a4b6d"/><g transform="translate(32.864 5.032)"><path d="M762.382,474.885a.62.62,0,0,1,.009-.877l5.983-5.856a.62.62,0,1,1,.868.886l-5.983,5.856A.62.62,0,0,1,762.382,474.885Z" transform="translate(-762.205 -467.974)" fill="#efd36a"/></g><g transform="translate(0 4.62)"><path d="M710.822,474.289a.62.62,0,0,0,.01-.877l-5.857-5.982a.62.62,0,0,0-.886.868l5.856,5.982A.62.62,0,0,0,710.822,474.289Z" transform="translate(-703.911 -467.243)" fill="#efd36a"/></g><g transform="translate(17.512)"><path d="M735.587,468.661a.619.619,0,0,1-.613-.626l.089-8.371a.62.62,0,1,1,1.24.013l-.089,8.371A.619.619,0,0,1,735.587,468.661Z" transform="translate(-734.974 -459.049)" fill="#efd36a"/></g></g></g></g></svg>