<svg xmlns="http://www.w3.org/2000/svg" style="isolation:isolate" viewBox="487.878 367.886 170.418 54.41" width="227.224" height="72.547">
    <defs>
        <clipPath id="a">
            <path d="M487.878 367.886h170.418v54.41H487.878z"/>
        </clipPath>
    </defs>
    <g clip-path="url(#a)">
        <clipPath id="b">
            <path d="M487.878 422.296h170.418v-54.41H487.878v54.41z" fill="#FFF"/>
        </clipPath>
        <g clip-path="url(#b)">
            <path d="M534.015 408.776l-4.438-1.842-5.208 5.209 1.856 4.422-1.343 1.344-6.506-15.836 1.208-1.208 15.791 6.551-1.36 1.36zm6.661-6.661l-3.396 3.397-11.171-11.172 3.336-3.336c1.585-1.584 3.624-2.929 6.069-2.719 1.903.09 3.653.968 5.237 2.553 1.4 1.399 2.27 2.934 2.542 4.52v-27.472h-41.516l-13.899 13.401v41.009h32.58l-15.553-6.751 1.313-1.314 13.254 5.857-5.842-13.268 1.313-1.314 6.733 15.61-1.181 1.18h22.798v-24.797c-.266 1.551-1.116 3.115-2.617 4.616z" fill="#2A4B6D"/>
            <path d="M535.197 389.962c-1.466-.045-3.005.498-4.53 2.024l-2.218 2.217 8.967 8.968 2.218-2.219c2.869-2.869 2.597-6.129-.09-8.816-1.298-1.299-2.793-2.099-4.347-2.174zM555.093 392.626h-.819l-1.604-4.243h.747l1.008 2.822.262.842.262-.836 1.009-2.828h.739l-1.604 4.243zM560.568 392.034v.591h-3.084v-4.243h.7v3.652h2.384zM563.848 391.513h-1.821l-.412 1.113h-.72l1.631-4.243h.837l1.631 4.243h-.74l-.406-1.113zm-.21-.559l-.497-1.364-.196-.61h-.02l-.184.598-.51 1.376h1.407zM568.203 391.513h-1.82l-.413 1.113h-.72l1.631-4.243h.837l1.631 4.243h-.74l-.406-1.113zm-.21-.559l-.497-1.364-.196-.61h-.02l-.184.598-.51 1.376h1.407zM574.536 392.626h-.642v-2.456l.046-1.171h-.007l-1.316 3.627h-.583l-1.316-3.627h-.007l.053 1.171v2.456h-.648v-4.243h1.041l.871 2.455.301 1.01h.013l.308-1.01.864-2.455h1.022v4.243zM578.31 388.529c.281.142.518.358.71.649l-.53.47c-.123-.258-.276-.443-.458-.559-.184-.115-.428-.173-.734-.173-.301 0-.535.058-.7.175-.166.119-.249.27-.249.454 0 .172.08.308.242.408.161.102.449.188.865.261.388.068.697.156.926.26.229.106.396.236.501.392.105.157.157.35.157.582 0 .249-.072.468-.216.656-.144.188-.346.333-.606.435-.26.1-.56.15-.901.15-.877 0-1.496-.287-1.859-.861l.491-.482c.14.257.32.445.54.565.221.12.495.18.822.18.31 0 .554-.052.73-.158.177-.104.266-.253.266-.446 0-.154-.08-.278-.239-.373-.16-.094-.438-.178-.836-.251-.397-.072-.713-.163-.948-.27-.237-.106-.408-.239-.515-.399-.107-.158-.16-.35-.16-.577 0-.242.068-.46.203-.657.135-.198.33-.353.586-.469.255-.116.553-.174.894-.174.397 0 .736.071 1.018.212zM585.373 392.034v.591h-3.222v-4.243h3.13v.592h-2.429v1.22h1.899v.579h-1.899v1.261h2.521zM588.738 392.626l-1.061-1.653-1.061 1.653h-.805l1.5-2.154-1.382-2.089h.832l.995 1.575.995-1.575h.76l-1.395 2.063 1.454 2.18h-.832zM593.148 388.735c.273.236.409.56.409.971 0 .412-.136.734-.409.968-.273.234-.643.35-1.11.35h-.962v1.601h-.701v-4.243h1.663c.467 0 .837.117 1.11.353zm-.54 1.521c.148-.122.223-.305.223-.55 0-.492-.302-.74-.904-.74h-.851v1.473h.851c.305 0 .532-.062.681-.183zM597.702 392.034v.591h-3.222v-4.243h3.13v.592h-2.429v1.22h1.899v.579h-1.899v1.261h2.521zM600.269 390.928h-.93v1.698h-.694v-4.243h1.761c.467 0 .836.111 1.107.336.271.226.406.538.406.936 0 .305-.08.559-.239.762-.16.203-.385.348-.678.434l1.173 1.775h-.806l-1.1-1.698zm-.93-.573h1.009c.284 0 .495-.056.635-.169.14-.114.209-.289.209-.525 0-.235-.069-.409-.209-.524-.14-.113-.351-.17-.635-.17h-1.009v1.388zM606.155 388.974h-1.48v3.652h-.701v-3.652h-1.48v-.591h3.661v.591zM606.994 392.626h.7v-4.243h-.7v4.243zM611.469 388.529c.281.142.518.358.71.649l-.531.47c-.122-.258-.275-.443-.457-.559-.184-.115-.428-.173-.734-.173-.301 0-.535.058-.701.175-.165.119-.248.27-.248.454 0 .172.08.308.242.408.161.102.449.188.864.261.389.068.698.156.926.26.23.106.397.236.502.392.105.157.157.35.157.582 0 .249-.072.468-.216.656-.144.188-.346.333-.606.435-.26.1-.56.15-.901.15-.877 0-1.497-.287-1.859-.861l.491-.482c.14.257.32.445.54.565.221.12.495.18.822.18.31 0 .554-.052.73-.158.177-.104.266-.253.266-.446 0-.154-.08-.278-.239-.373-.159-.094-.438-.178-.836-.251-.397-.072-.713-.163-.948-.27-.237-.106-.408-.239-.515-.399-.107-.158-.16-.35-.16-.577 0-.242.068-.46.203-.657.135-.198.33-.353.586-.469.255-.116.553-.174.894-.174.397 0 .737.071 1.018.212zM616.403 392.034v.591h-3.222v-4.243h3.13v.592h-2.429v1.22h1.899v.579h-1.899v1.261h2.521zM620.178 392.381c-.317.206-.689.309-1.116.309-.415 0-.775-.088-1.081-.264-.305-.176-.541-.428-.707-.758-.166-.33-.249-.719-.249-1.164 0-.446.083-.834.249-1.164.166-.329.402-.583.707-.759.306-.176.663-.263 1.074-.263.432 0 .795.087 1.09.263.295.176.508.436.639.779l-.662.289c-.087-.253-.213-.439-.38-.557-.165-.118-.381-.175-.648-.175-.405 0-.729.139-.972.42-.242.28-.363.669-.363 1.167 0 .502.115.891.347 1.17.231.279.552.418.963.418.278 0 .513-.069.703-.206.19-.137.327-.339.409-.604l.668.219c-.131.381-.354.674-.671.88zM624.968 392.034v.591h-3.222v-4.243h3.13v.592h-2.429v1.22h1.899v.579h-1.899v1.261h2.521zM629.453 392.626h-.831l-1.67-2.675-.42-.785h-.006l.026.721v2.739h-.641v-4.243h.825l1.663 2.667.425.791h.007l-.026-.719v-2.739h.648v4.243zM633.945 388.974h-1.48v3.652h-.701v-3.652h-1.479v-.591h3.66v.591zM636.407 390.928h-.93v1.698h-.694v-4.243h1.761c.467 0 .836.111 1.107.336.271.226.407.538.407.936 0 .305-.081.559-.24.762-.16.203-.385.348-.678.434l1.172 1.775h-.805l-1.1-1.698zm-.93-.573h1.009c.284 0 .495-.056.635-.169.14-.114.209-.289.209-.525 0-.235-.069-.409-.209-.524-.14-.113-.351-.17-.635-.17h-1.009v1.388zM642.66 390.998c0 .557-.151.98-.452 1.263-.301.287-.74.429-1.316.429-.576 0-1.015-.142-1.316-.429-.301-.283-.452-.706-.452-1.263v-2.615h.707v2.532c0 .403.086.7.259.891.172.19.439.286.802.286.362 0 .63-.096.803-.286.171-.191.258-.488.258-.891v-2.532h.707v2.615zM648.304 392.626h-.642v-2.456l.046-1.171h-.007l-1.316 3.627h-.582l-1.317-3.627h-.007l.053 1.171v2.456h-.648v-4.243h1.041l.871 2.455.301 1.01h.013l.308-1.01.864-2.455h1.022v4.243zM555.611 399.228h-1.821l-.412 1.113h-.72l1.631-4.243h.837l1.631 4.243h-.74l-.406-1.113zm-.21-.559l-.497-1.364-.196-.61h-.021l-.183.598-.51 1.376h1.407zM560.607 399.749v.591h-3.084v-4.243h.7v3.652h2.384zM564.206 400.096c-.317.206-.689.309-1.116.309-.415 0-.775-.088-1.081-.264-.305-.175-.541-.428-.707-.758-.166-.331-.249-.719-.249-1.164 0-.446.083-.834.249-1.164.166-.329.402-.583.707-.759.306-.176.663-.263 1.074-.263.432 0 .795.087 1.09.263.295.176.508.436.639.779l-.662.289c-.087-.253-.213-.439-.38-.557-.165-.118-.381-.175-.648-.175-.405 0-.73.139-.972.42-.242.28-.363.669-.363 1.167 0 .502.115.891.346 1.17.232.279.553.418.964.418.278 0 .513-.069.703-.206.19-.137.326-.339.409-.604l.668.219c-.131.381-.355.674-.671.88zM568.652 396.296c.308.176.545.43.71.758.166.331.249.719.249 1.165 0 .445-.083.833-.249 1.163-.165.331-.402.583-.71.759-.308.176-.669.264-1.084.264-.414 0-.775-.088-1.08-.264-.305-.176-.541-.428-.707-.759-.167-.33-.249-.718-.249-1.163 0-.446.082-.834.249-1.165.166-.328.402-.582.707-.758.305-.176.666-.264 1.08-.264.415 0 .776.088 1.084.264zm-2.04.752c-.231.279-.346.669-.346 1.171s.115.891.346 1.17c.232.279.55.418.956.418.411 0 .732-.139.963-.418.231-.279.347-.668.347-1.17 0-.502-.116-.892-.347-1.171-.231-.279-.552-.417-.963-.417-.406 0-.724.138-.956.417zM574.195 396.098v4.243h-.707v-1.852h-2.135v1.852h-.7v-4.243h.7v1.8h2.135v-1.8h.707zM578.35 396.296c.308.176.545.43.711.758.165.331.248.719.248 1.165 0 .445-.083.833-.248 1.163-.166.331-.403.583-.711.759-.308.176-.669.264-1.084.264-.414 0-.775-.088-1.08-.264-.306-.176-.542-.428-.707-.759-.166-.33-.249-.718-.249-1.163 0-.446.083-.834.249-1.165.165-.328.401-.582.707-.758.305-.176.666-.264 1.08-.264.415 0 .776.088 1.084.264zm-2.04.752c-.232.279-.346.669-.346 1.171s.114.891.346 1.17c.231.279.55.418.956.418.41 0 .732-.139.963-.418.231-.279.347-.668.347-1.17 0-.502-.116-.892-.347-1.171-.231-.279-.553-.417-.963-.417-.406 0-.725.138-.956.417zM583.435 399.749v.591h-3.084v-4.243h.7v3.652h2.384zM589.452 399.749v.591h-3.222v-4.243h3.13v.592h-2.429v1.22h1.899v.579h-1.899v1.261h2.521zM593.937 400.341h-.831l-1.67-2.675-.42-.785h-.006l.026.721v2.739h-.641v-4.243h.825l1.663 2.667.425.791h.007l-.026-.72v-2.738h.648v4.243zM599.556 399.228h-1.82l-.413 1.113h-.72l1.631-4.243h.837l1.631 4.243h-.74l-.406-1.113zm-.21-.559l-.497-1.364-.196-.61h-.02l-.184.598-.51 1.376h1.407zM605.011 400.341h-.831l-1.67-2.675-.42-.785h-.006l.026.721v2.739h-.641v-4.243h.825l1.663 2.667.425.791h.007l-.026-.72v-2.738h.648v4.243zM609.399 396.65c.375.368.563.892.563 1.569 0 .677-.188 1.2-.563 1.568-.376.369-.904.554-1.585.554h-1.525v-4.244h1.525c.681 0 1.209.184 1.585.553zm-.537 2.703c.244-.267.366-.646.366-1.134 0-.489-.122-.867-.366-1.136-.245-.267-.594-.401-1.048-.401h-.825v3.074h.825c.454 0 .803-.135 1.048-.403zM614.225 399.749v.591h-3.222v-4.243h3.13v.592h-2.429v1.22h1.899v.579h-1.899v1.261h2.521zM616.792 398.643h-.93v1.698h-.694v-4.244h1.761c.467 0 .836.112 1.107.337.271.226.406.538.406.936 0 .305-.08.558-.239.762-.16.203-.385.348-.677.434l1.172 1.775h-.806l-1.1-1.698zm-.93-.573h1.009c.284 0 .495-.056.635-.169.14-.114.21-.289.21-.525 0-.235-.07-.41-.21-.524-.14-.113-.351-.171-.635-.171h-1.009v1.389zM622.79 399.749v.591h-3.221v-4.243h3.129v.592h-2.429v1.22h1.899v.579h-1.899v1.261h2.521zM628.972 396.65c.375.368.563.892.563 1.569 0 .677-.188 1.2-.563 1.568-.376.369-.904.554-1.586.554h-1.524v-4.244h1.524c.682 0 1.21.184 1.586.553zm-.537 2.703c.244-.267.366-.646.366-1.134 0-.489-.122-.867-.366-1.136-.245-.267-.594-.401-1.049-.401h-.824v3.074h.824c.455 0 .804-.135 1.049-.403zM632.2 398.643h-.93v1.698h-.694v-4.244h1.761c.467 0 .836.112 1.107.337.271.226.406.538.406.936 0 .305-.08.558-.239.762-.16.203-.385.348-.677.434l1.172 1.775h-.806l-1.1-1.698zm-.93-.573h1.009c.284 0 .495-.056.635-.169.14-.114.21-.289.21-.525 0-.235-.07-.41-.21-.524-.14-.113-.351-.171-.635-.171h-1.009v1.389zM638.453 398.713c0 .557-.151.979-.452 1.263-.301.287-.74.428-1.316.428-.577 0-1.015-.141-1.316-.428-.302-.284-.452-.706-.452-1.263v-2.616h.707v2.533c0 .403.086.699.259.89.172.191.439.287.802.287.363 0 .63-.096.802-.287.172-.191.259-.487.259-.89v-2.533h.707v2.616zM643.298 398.148v2.193h-.517l-.019-.54c-.128.192-.302.341-.525.447-.223.104-.489.157-.799.157-.401 0-.753-.088-1.054-.264-.301-.176-.535-.427-.7-.756-.167-.328-.249-.716-.249-1.167 0-.445.085-.832.255-1.16.17-.328.411-.58.72-.758.31-.179.67-.268 1.081-.268.445 0 .812.082 1.1.245.288.163.515.416.681.758l-.642.303c-.083-.232-.222-.408-.419-.527-.197-.121-.432-.18-.707-.18-.41 0-.736.138-.976.417-.24.279-.36.669-.36 1.17 0 .51.115.905.344 1.181.229.276.564.414 1.005.414.345 0 .624-.084.838-.251.214-.167.321-.409.321-.726v-.123h-1.323v-.565h1.945zM646.91 396.245c.281.142.518.358.711.649l-.532.47c-.121-.258-.274-.443-.457-.559-.184-.115-.428-.173-.734-.173-.301 0-.535.058-.701.175-.165.119-.248.27-.248.454 0 .172.08.307.242.408.161.101.449.188.865.261.388.068.697.156.926.26.229.106.396.236.501.392.105.157.157.35.157.583 0 .248-.072.467-.216.655-.144.189-.346.333-.606.435-.26.1-.56.15-.9.15-.878 0-1.497-.287-1.86-.861l.491-.482c.14.257.32.446.541.565.22.12.494.18.821.18.31 0 .554-.052.731-.158.176-.104.265-.254.265-.445 0-.155-.08-.279-.239-.373-.159-.095-.438-.179-.836-.251-.396-.073-.713-.164-.948-.271-.237-.106-.408-.239-.515-.399-.107-.158-.16-.35-.16-.577 0-.242.068-.46.203-.657s.33-.353.586-.469c.255-.116.553-.174.894-.174.397 0 .737.071 1.018.212z" fill="#2A4B6D"/>
            <clipPath id="c">
                <path d="M0 595.276h841.89V0H0v595.276z" fill="#FFF"/>
            </clipPath>
            <g clip-path="url(#c)">
                <path vector-effect="non-scaling-stroke" stroke-width=".65" stroke="#CEE2D4" stroke-linecap="square" stroke-miterlimit="3" d="M560.498 217.004v-20.626"/>
                <path d="M560.498 221.198l2.118-5.82s-2.118 1.626-4.236 0l2.118 5.82zM560.498 192.184l-2.118 5.82s2.118-1.626 4.236 0l-2.118-5.82z" fill="#CEE2D4"/>
                <path vector-effect="non-scaling-stroke" stroke-width=".65" stroke="#CEE2D4" stroke-linecap="square" stroke-miterlimit="3" d="M671.002 415.334v-43.063"/>
                <path d="M671.002 419.528l2.118-5.82s-2.118 1.626-4.236 0l2.118 5.82zM671.002 368.077l-2.118 5.82s2.118-1.626 4.236 0l-2.118-5.82z" fill="#CEE2D4"/>
                <path d="M528.173 406.284l-7.835-3.367 3.381 7.822 4.454-4.455z" fill="#2A4B6D"/>
            </g>
        </g>
    </g>
</svg>
