<svg xmlns="http://www.w3.org/2000/svg" width="170.167" height="424" viewBox="0 0 170.167 424"><g transform="translate(-1040 -193)"><path d="M556.43,1467.537l-85.084,85.084H556.43Z" transform="translate(653.737 -1189.453)" fill="#e3eeee"/><path d="M556.43,1467.537l-85.084,85.084H556.43Z" transform="translate(-427.537 1004.43) rotate(-90)" fill="#e3eeee"/><path d="M556.43,1467.537l-85.084,85.084H556.43Z" transform="translate(653.737 -1274.537)" fill="#e3eeee"/><path d="M85.084,0,0,85.084H85.084Z" transform="translate(1125.084 617) rotate(180)" fill="#e3eeee"/><path d="M0,85V0A85,85,0,0,1,85,85Z" transform="translate(1040 363) rotate(-90)" fill="#e3eeee"/><path d="M0,85V0A85,85,0,0,1,85,85Z" transform="translate(1125 532) rotate(-90)" fill="#e3eeee"/><path d="M0,85V0A85,85,0,0,1,85,85Z" transform="translate(1125 363)" fill="#e3eeee"/><path d="M0,85V0A85,85,0,0,1,85,85Z" transform="translate(1125 532)" fill="#e3eeee"/></g></svg>